<?xml version="1.0" encoding="UTF-8"?>
<svg id="Calque_1" data-name="Calque 1" xmlns="http://www.w3.org/2000/svg" viewBox="0 0 110.43 118.99">
  <path d="M17.51,30.62c2.63,6.37,8.99,14.26,16.28,15.03,2.88.3,5.7,0,8.41,1.22s4.64,3.9,6.5,6.19c2.27,2.79,4.45,5.64,6.63,8.5.78,1.03,3.95,5.29,4.16,4.59-.2.66-1.87,1.21-2.2,2.22s.07,2.09.51,2.96c2.02,4.07,6.85,8.04,9.83,11.5,1.64,1.9,3.27,4.53,5.31,5.99,1.28.92,2.71.92,4.04,1.6,4.41,2.25,8.29,10.19,11.01,14.4,1.88,2.91,6.56.21,4.66-2.73-2.29-3.55-4.67-7.02-7.21-10.39-1.8-2.39-3.54-5.43-6.33-6.71-1.04-.48-2.36-.4-3.36-1-1.79-1.07-3.54-4.1-4.92-5.69-1.23-1.42-2.46-2.85-3.69-4.27-.69-.8-4.49-4.11-4.55-4.94l-1.34,2.33c2.72-2.01,4.5-3.36,2.75-7.07-2.6-5.55-8.21-11.13-12.09-15.85-3.49-4.25-6.91-7.25-12.55-7.9-4.08-.48-6.81-.3-10.13-3.16-2.65-2.29-5.17-4.97-6.52-8.24s-6.54-1.78-5.21,1.44h0Z" style="fill: #fff;"/>
  <path d="M23.63,27.8c2.84-.07,6.06.34,8.78-.65,3.55-1.28,2.97-4.99,5.4-7.35,1.27-1.23,1.19-1.27,2.57.5.81,1.04,1.41,2.38,2.06,3.53,1.13,2,3.4,4.55,3.19,6.95-.16,1.83-1.84,3.74-2.38,5.58-.63,2.14-.82,4.43-1.08,6.63-.4,3.45,5,3.42,5.4,0,.43-3.66,1.5-5.86,2.82-9.19.55-1.39.85-3.22.66-4.71-.34-2.61-2.24-4.97-3.51-7.21-1.39-2.46-2.72-5.44-4.91-7.31-3.49-3-6.73-1.47-9.06,1.89-1.11,1.6-2.04,4.85-3.56,5.71-1.39.79-4.77.18-6.37.23-3.47.09-3.48,5.49,0,5.4h0Z" style="fill: #fff;"/>
  <path d="M65.06,68.98c8.48,1.74,11.64,9.97,12.18,17.78.24,3.45,5.64,3.48,5.4,0-.69-10.11-5.23-20.75-16.14-22.99-3.39-.7-4.84,4.51-1.44,5.21h0Z" style="fill: #fff;"/>
</svg>