<?xml version="1.0" encoding="UTF-8"?>
<svg id="Calque_1" data-name="Calque 1" xmlns="http://www.w3.org/2000/svg" viewBox="0 0 110.43 118.99">
  <path d="M51.76,32.2c3.15,8.27,7.89,15.52,14.34,21.59l2.14-5.17-5.33.33c-2.06.13-4.08,2.56-2.61,4.55,3.97,5.4,8.44,10.19,13.68,14.39l1.34-5.06-8.15,2.09c-1.58.41-2.54,2.17-2.11,3.72,2.29,8.29,7.8,15.03,15.58,18.75v-5.23c-5.31,2.93-11.28,3.13-17.16,3.94-4.16.58-7.36,1.31-7.52,6-.11,3.4.81,6.88,4.32,8.02.78.26,1.58.31,2.39.34,1.39.04,1.08-.79,1.44-.23.24.37.22,2,.1,2.43-.54,1.78-.52,1.21-2.97,1.32-2.82.13-17.97,2.03-18.97-1.61-.9-3.29,3.7-2.3,5.37-3,1.43-.59,2.39-1.69,2.88-3.11,1.05-3.04,1.26-8.67-2.08-10.35-1.96-.98-4.72-.69-6.84-1.1-1.8-.35-9.93-1.97-10.3-3.89l-.78,2.94c2.26-1.96,5-3.3,7.21-5.38s3.87-4.27,5.47-6.67c.89-1.33.29-3.39-1.09-4.14s-2.72-.86-4.02-1.47c-1.43-.67-.98.02.28-.8.82-.53,1.68-.98,2.49-1.53,3.13-2.11,5.93-4.8,8.01-7.97,1.3-1.98,2.35-4.25.67-6.35-2.02-2.53-6.99-1.92-9.83-2.13l2.14,5.17c4.03-3.78,7.84-7.78,11.29-12.1,2.45-3.07,4.21-6.05,2.74-10.04-.74-2.01-2.24-3.59-3.25-5.45-1.43-2.63-2.9-8.91,1.41-10.09,4.63-1.26,4.22,5.64,3.45,8.31s-2.27,4.93-4.42,6.79c-2.95,2.55,1.35,6.82,4.28,4.28,4.96-4.29,8.03-11.91,6.56-18.48-1.28-5.69-7.22-8.68-12.58-6.28-5.95,2.67-7.39,9.85-5.36,15.54.66,1.85,1.93,3.28,2.75,5.01,1.76,3.73.94,5.21-1.53,8.15-2.99,3.57-6.23,6.9-9.63,10.08-2.04,1.92-.34,4.98,2.14,5.17.74.05,7.34,1.26,4.74-1.91.46.57-3.66,4.65-4.29,5.22-2.5,2.27-6.21,3.42-8.22,6.19-1.4,1.92-1.6,4.42-.21,6.42,1.76,2.53,4.88,2.15,7.32,3.48l-1.09-4.14c-3.23,4.84-7.51,7.15-11.74,10.82-.84.73-.98,1.92-.78,2.94,1.04,5.28,10.09,7.24,14.53,8.12.83.16,3.68.19,4.19.62.76.65.57,2.94,1.05,2.48-.41.4-2.75-.05-3.55.16-.89.23-1.66.64-2.38,1.18-3.34,2.52-4.11,8.42-1.81,11.89,2.97,4.47,10.95,3.31,15.4,3.29s13.88,1.51,16.65-2.74c1.52-2.32,1.28-8.83-.4-11.1-1.51-2.05-3.24-1.32-5.29-2.04-1.02-.36-2.54-.3-1.84-2.29-.71.47-.61.56.31.26,1.04-.19,2.08-.35,3.14-.46,6.36-.81,12.51-1.35,18.23-4.51,1.88-1.04,2.06-4.24,0-5.23-6.43-3.08-10.89-8.24-12.8-15.13l-2.11,3.72,8.15-2.09c2.04-.52,3.15-3.61,1.34-5.06-4.81-3.86-9.07-8.19-12.73-13.16l-2.61,4.55,5.33-.33c2.49-.16,4.16-3.27,2.14-5.17-5.68-5.34-10-11.62-12.79-18.92-1.37-3.6-7.23-2.04-5.84,1.61h0Z" style="fill: #fff;"/>
</svg>