<?xml version="1.0" encoding="UTF-8"?>
<svg id="Calque_1" data-name="Calque 1" xmlns="http://www.w3.org/2000/svg" viewBox="0 0 110.43 118.99">
  <path d="M31.71,85.3c-3.86,2.69-6.35,6.16-7.36,10.79h5.21c-2.17-11.17-2.03-23.02,4.9-32.55,1.73-2.38-1.52-4.76-3.69-3.69-4.55,2.22-9.97,1.89-14.29-.76-5.25-3.23-9.02-12.11-.28-13.2,4.07-.51,8.01-.34,11.48-2.89,3.13-2.3,4.76-5.8,6.21-9.3,1.33-3.21-3.89-4.61-5.21-1.44-1.7,4.11-3.86,7.27-8.55,7.9-3.02.41-6.12.17-9,1.36-5.45,2.26-6.82,8.18-4.91,13.39,3.97,10.81,17.55,14.34,27.27,9.6l-3.69-3.69c-7.77,10.69-7.88,24.21-5.44,36.71.51,2.61,4.65,2.54,5.21,0,.71-3.24,2.14-5.65,4.88-7.57s.13-6.66-2.73-4.66h0Z" style="fill: #fff;"/>
  <path d="M49.72,34.55c-2.46,1.22-6.58,2.64-8.43-.43-.95-1.57-.33-3.77.05-5.44.13-.58.6-3.46,1.2-3.64,0,0,3.12,2.6,3.35,2.76,3.3,2.15,6.95,3.73,9.97,6.3,3.77,3.21,6.08,7.39,8.28,11.73,3.54,7,7.39,13.19,14.6,16.87s15.04,4.57,22.82,5.44c3.45.38,3.42-5.02,0-5.4-6.2-.69-12.58-1.46-18.37-3.92-6.45-2.74-10.19-7.53-13.32-13.61-2.67-5.2-5.18-10.4-9.59-14.39-3.84-3.48-8.57-5.43-12.74-8.41-2.58-1.85-5.14-4.32-8.24-1.8-2.52,2.05-3.27,6.3-3.71,9.34-.55,3.77.5,7.56,3.75,9.83,4.06,2.84,9.05,1.46,13.12-.56,3.12-1.54.38-6.2-2.73-4.66h0Z" style="fill: #fff;"/>
  <path d="M37.69,83.03c-2.58,2.33-4.12,5.05-4.69,8.48-.46,2.75,3.56,5.1,4.94,2.08,2.93-6.44,7.94-11.14,14.7-13.34l-2.63-4.51c-1.74,1.57-2.26,3-2.55,5.29-.26,2.03,2.48,3.37,4.06,2.33,2.19-1.43,4.4-2.82,6.68-4.1,1.02-.58,5.15-3.6,6.11-3.46l-1.89-1.89.16.56,1.24-3.05-.4.26c-2.9,1.88-.32,6.39,2.73,4.66s6.11-3.47,9.17-5.2l-3.69-3.69c-.51.74-1.02,1.48-1.53,2.22-1.27,1.86.87,4.81,3.05,3.97,9.43-3.66,19.17-5.12,29.26-4.38,3.47.26,3.45-5.15,0-5.4-10.52-.78-20.86.75-30.7,4.57l3.05,3.97c.51-.74,1.02-1.48,1.53-2.22,1.59-2.31-1.47-4.96-3.69-3.69-3.06,1.73-6.11,3.47-9.17,5.2l2.73,4.66.4-.26c1-.65,1.58-1.87,1.24-3.05l-.16-.56c-.24-.82-.98-1.75-1.89-1.89-2.48-.37-4.23.81-6.43,1.93-3.62,1.85-7.11,3.94-10.52,6.17l4.06,2.33.97-1.47c1.99-1.79-.09-5.34-2.63-4.51-8.02,2.61-14.42,8.11-17.93,15.82l4.94,2.08c.43-2.57,1.37-4.35,3.3-6.1,2.59-2.33-1.24-6.14-3.82-3.82h0Z" style="fill: #fff;"/>
</svg>