<?xml version="1.0" encoding="UTF-8"?>
<svg id="Calque_1" data-name="Calque 1" xmlns="http://www.w3.org/2000/svg" viewBox="0 0 110.43 118.99">
  <path d="M16.27,28.15c-1.29,12.03-1,24.09-.45,36.16.19,4.17.04,8.29,1.79,12.17,1.95,4.33,5.35,6.82,9.18,9.4,11.21,7.55,22.42,15.75,36.59,13.75,8.11-1.14,16.37-3.95,23.96-6.95,9.88-3.91,7.51-12.87,6.91-21.65-.36-5.29-.67-10.59-.62-15.9.04-4.79,1.15-9.92.3-14.66-1.21-6.73-6.67-11.2-12.46-14.15-7.48-3.81-15.67-7.2-24.14-7.38-12.64-.27-24.88,4.1-37.31,5.72-3.81.5-3.86,6.56,0,6.05,16.78-2.19,33.89-9.46,50.39-2.64,4.99,2.06,10.71,3.97,14.56,7.94,5.51,5.7,2.51,15.53,2.63,22.67.08,4.42.36,8.83.67,13.24.28,4,2.46,11.79-1.4,14.37-3.16,2.11-8.17,3.02-11.78,4.17-3.2,1.02-6.43,1.99-9.71,2.68-11.32,2.39-19.84-2.19-29.14-8.25-3.76-2.45-8.55-4.86-11.45-8.31-3.33-3.95-2.76-9.36-2.97-14.2-.49-11.43-.68-22.86.54-34.25.42-3.87-5.64-3.84-6.05,0h0Z" style="fill: #fff;"/>
  <path d="M16.68,29.36c7.5,9.95,18.32,16.36,30.02,20.28,2.99,1,5.23,1.75,8.37,1.29,3.44-.51,6.83-1.28,10.19-2.14,7.68-1.95,15.22-4.22,23.19-4.59,3.88-.18,3.9-6.24,0-6.05-6.14.29-12.09,1.51-18.03,3.03s-13.3,4.75-19.23,3.52c-10.9-2.25-22.62-9.56-29.29-18.41-2.32-3.07-7.57-.06-5.23,3.06h0Z" style="fill: #fff;"/>
  <path d="M58.25,27.94c-3.19-.26-7.9.22-8.97,3.92-.44,1.52.02,3.22,1.17,4.32,1.06,1.01,2.58,1.57,4.05,1.47,2.08-.13,3.81-1.07,5.36-2.42.56-.49.89-1.42.89-2.14s-.33-1.63-.89-2.14-1.33-.92-2.14-.89-1.51.34-2.14.89c-.14.12-.28.24-.43.35l.61-.47c-.45.34-.92.63-1.44.85l.72-.31c-.36.15-.73.25-1.12.31l.8-.11c-.29.04-.58.04-.87,0l.8.11c-.24-.03-.46-.09-.68-.19l.72.31c-.16-.07-.3-.15-.44-.25l.61.47c-.12-.1-.23-.2-.33-.33l.47.61c-.07-.1-.13-.2-.18-.31l.31.72c-.04-.1-.07-.2-.08-.3l.11.8c-.02-.12-.02-.23,0-.35l-.11.8c.02-.11.05-.22.09-.32l-.31.72c.05-.12.12-.24.21-.35l-.47.61c.11-.13.23-.25.36-.36l-.61.47c.23-.18.48-.31.74-.43l-.72.31c.53-.22,1.09-.35,1.65-.43l-.8.11c1.01-.13,2.03-.11,3.04-.03.74.06,1.63-.38,2.14-.89s.92-1.39.89-2.14-.29-1.59-.89-2.14-1.3-.82-2.14-.89h0Z" style="fill: #fff;"/>
  <path d="M24.07,48.04c-.07,2.83.36,6.42,3.02,8.05,1.48.9,3.49.63,4.71-.58,1.04-1.03,1.41-2.37,1.53-3.78.13-1.55-.28-3.19-.85-4.63-.3-.76-.66-1.38-1.39-1.81-.65-.38-1.6-.54-2.33-.31s-1.44.69-1.81,1.39-.6,1.59-.31,2.33c.32.81.57,1.65.7,2.52l-.11-.8c.07.51.08,1.03.02,1.54l.11-.8c-.04.27-.1.54-.21.8l.31-.72c-.03.08-.07.16-.12.23-.22.43.13-.22.29-.36-.5.42.76-.44.24-.19l.72-.31c-.08.03-.15.05-.23.07l.8-.11c-.07,0-.13,0-.2,0l.8.11c-.09-.01-.17-.04-.25-.07l.72.31c-.09-.04-.16-.1-.25-.14.94.44.64.54.45.33-.04-.05-.09-.1-.14-.15-.21-.21.55.78.32.41-.04-.06-.08-.12-.11-.18-.09-.15-.16-.3-.23-.46l.31.72c-.25-.61-.39-1.26-.48-1.91l.11.8c-.1-.77-.12-1.53-.1-2.3.04-1.58-1.42-3.1-3.03-3.03s-2.98,1.33-3.03,3.03h0Z" style="fill: #fff;"/>
  <path d="M39.35,53.07c-.64.56-1.2,1.25-1.66,1.96-.4.62-.7,1.33-.9,2.05-.18.66-.28,1.38-.26,2.07.02.45.09.9.17,1.34.03.17.07.34.13.51.29.84.61,1.42,1.19,2.09.48.55,1.16.94,1.86,1.15.02,0,.05,0,.07.02.23.05.63.11.86.11.31,0,.64-.04.93-.11.35-.08.68-.23.99-.41.58-.36.93-.76,1.32-1.32.23-.33.37-.74.51-1.11.08-.22.14-.44.18-.67.1-.55.17-1.11.2-1.68.04-.89-.03-1.79-.15-2.68.02-.42-.07-.81-.26-1.17-.12-.38-.33-.7-.63-.97-.52-.52-1.39-.92-2.14-.89s-1.59.29-2.14.89l-.47.61c-.27.47-.41.98-.41,1.53.14,1.08.23,2.2.1,3.29l.11-.8c-.05.34-.12.68-.25,1l.31-.72c-.05.13-.12.25-.2.36l.47-.61c-.05.07-.11.13-.18.18l.61-.47s-.09.06-.14.09l.72-.31c-.05.02-.11.04-.16.05l.8-.11c-.05,0-.1,0-.15,0l.8.11c-.06,0-.12-.03-.18-.05l.72.31c-.08-.03-.14-.08-.21-.13l.61.47c-.1-.08-.19-.17-.27-.27l.47.61c-.12-.16-.22-.33-.29-.52l.31.72c-.11-.27-.18-.55-.22-.84l.11.8c-.05-.36-.04-.72,0-1.07l-.11.8c.06-.4.16-.78.32-1.15l-.31.72c.18-.41.41-.79.68-1.15l-.47.61c.27-.34.57-.66.9-.94.56-.49.89-1.42.89-2.14s-.33-1.63-.89-2.14-1.33-.92-2.14-.89l-.8.11c-.51.14-.96.4-1.34.78h0Z" style="fill: #fff;"/>
  <path d="M28.62,65.79c-.22.1-.43.21-.63.34-.37.25-.75.53-1.07.85-.64.65-1.01,1.33-1.32,2.17-.14.39-.17.84-.22,1.24-.02.15-.03.3-.02.45.02.34.08.67.13,1,.01.07.03.14.04.21.1.38.28.75.44,1.1.05.12.12.23.2.34.21.29.43.62.7.87.23.21.48.4.74.57.04.03.09.06.13.08.02.01.04.02.07.03.25.12.52.24.79.33.05.02.09.03.14.04.28.05.63.13.94.12.15,0,.34-.04.47-.06.12-.02.32-.03.47-.07.02,0,.05-.01.07-.02.26-.08.54-.21.78-.33.05-.02.1-.05.14-.08.63-.43.88-.71,1.32-1.33.24-.33.37-.75.52-1.12.08-.19.13-.38.18-.58.11-.51.17-1.02.22-1.54.07-.71.04-1.43-.01-2.14-.02-.22-.04-.44-.06-.66.02-.42-.07-.81-.26-1.17-.12-.38-.33-.7-.63-.97-.27-.3-.6-.5-.97-.63-.36-.19-.75-.28-1.17-.26l-.8.11c-.51.14-.96.4-1.34.78l-.47.61c-.27.47-.41.98-.41,1.53.11,1.02.18,2.06.04,3.09l.11-.8c-.05.35-.12.71-.26,1.04l.31-.72c-.06.15-.14.28-.23.41l.47-.61c-.06.07-.12.14-.2.2l.61-.47c-.05.04-.11.07-.17.1l.72-.31c-.06.03-.12.04-.19.05l.8-.11c-.06,0-.12,0-.18,0l.8.11c-.08-.01-.15-.03-.22-.06l.72.31c-.09-.04-.17-.09-.25-.15l.61.47c-.1-.08-.19-.17-.27-.27l.47.61c-.11-.14-.19-.29-.26-.45l.31.72c-.08-.18-.13-.38-.16-.58l.11.8c-.03-.2-.03-.4,0-.6l-.11.8c.03-.19.08-.37.15-.55l-.31.72c.08-.18.18-.35.29-.5l-.47.61c.14-.19.31-.35.5-.49l-.61.47c.24-.19.51-.34.79-.46.35-.19.64-.45.85-.78.27-.29.45-.64.54-1.03.13-.4.14-.8.05-1.21-.02-.4-.14-.78-.36-1.13-.42-.65-1.04-1.22-1.81-1.39l-.8-.11c-.55,0-1.06.14-1.53.41h0Z" style="fill: #fff;"/>
  <path d="M39.14,74.81c-.29.56-.53,1.14-.78,1.72-.12.3-.24.6-.33.91-.08.26-.15.52-.2.79-.07.38-.11.77-.16,1.15-.01.11-.02.22-.03.33-.01.19,0,.39.01.58.04.35.08.7.15,1.05.02.08.03.15.06.22.01.03.02.07.04.1.1.28.22.54.34.81.03.06.06.12.09.18.02.03.03.05.05.08,0,.01.02.02.02.03.16.22.33.43.5.65.04.04.07.09.11.12.22.21.48.39.73.57.04.03.08.05.13.07.24.11.5.22.75.32.01,0,.02,0,.03.01.02,0,.04.02.07.02.3.08.63.11.94.13.05,0,.09,0,.14,0,0,0,.01,0,.02,0,.2-.02.61-.08.82-.11.01,0,.02,0,.04,0,.02,0,.05,0,.07-.02s.04-.01.07-.02c.13-.05.27-.11.39-.16s.27-.11.39-.17c.04-.02.09-.05.13-.07.01,0,.02-.01.03-.02.21-.16.43-.33.64-.49.02-.02.04-.03.06-.05.04-.04.08-.08.11-.12.18-.22.41-.49.57-.75.03-.06.06-.11.09-.17.12-.27.24-.54.34-.81.01-.03.02-.07.04-.1.02-.07.04-.14.06-.22,0-.04.02-.08.02-.12.05-.31.09-.61.12-.92.01-.09.02-.18.02-.27,0-.2,0-.4-.03-.6-.06-.5-.11-1-.24-1.49-.07-.27-.16-.53-.25-.79-.15-.39-.31-.77-.48-1.14-.07-.15-.14-.3-.21-.45-.08-.16-.16-.31-.25-.46-.19-.35-.45-.64-.78-.85-.29-.27-.64-.45-1.03-.54-.4-.13-.8-.14-1.21-.05-.4.02-.78.14-1.13.36l-.61.47c-.38.38-.63.82-.78,1.34l-.11.8c0,.55.14,1.06.41,1.53.2.35.38.71.53,1.08l-.31-.72c.18.43.33.88.43,1.34.02.11.04.22.06.33l-.11-.8c.04.32.05.64.01.96l.11-.8c-.03.19-.07.39-.15.57l.31-.72c-.05.12-.12.24-.2.34l.47-.61c-.06.08-.13.14-.2.2l.61-.47c-.06.05-.13.09-.2.12l.72-.31c-.07.03-.13.05-.21.06l.8-.11c-.07,0-.13,0-.2,0l.8.11c-.07,0-.13-.03-.2-.05l.72.31c-.07-.03-.13-.07-.19-.11l.61.47c-.07-.06-.14-.12-.19-.19l.47.61c-.08-.1-.14-.21-.19-.33l.31.72c-.08-.18-.12-.38-.15-.58l.11.8c-.05-.34-.03-.69.01-1.04l-.11.8c.07-.52.21-1.02.39-1.51.06-.17.13-.33.2-.5l-.31.72c.14-.33.3-.66.46-.98.22-.35.34-.72.36-1.13.09-.4.07-.8-.05-1.21-.09-.39-.27-.74-.54-1.03-.21-.33-.5-.59-.85-.78l-.72-.31c-.54-.14-1.07-.14-1.61,0l-.72.31c-.45.27-.82.63-1.09,1.09h0Z" style="fill: #fff;"/>
  <path d="M47.84,52.44c-.25,13.91-.04,27.82.63,41.73.19,3.88,6.24,3.9,6.05,0-.67-13.9-.88-27.81-.63-41.73.07-3.9-5.98-3.9-6.05,0h0Z" style="fill: #fff;"/>
  <path d="M61.78,78.85c-.61.42-1.24.89-1.72,1.47-.59.72-1.01,1.36-1.29,2.26-.26.83-.22,1.61-.08,2.45.02.14.06.27.11.41.13.34.26.72.47,1.03.45.68.91,1.15,1.59,1.59.31.2.68.34,1.02.46.24.09.48.1.73.14s.48.08.74.05c.62-.06.93-.12,1.47-.34s.79-.4,1.25-.79c.29-.24.51-.58.73-.88.24-.34.39-.76.53-1.14.08-.2.13-.41.16-.62.08-.5.16-1.02.15-1.53,0-.59-.11-1.17-.19-1.75-.09-.39-.27-.74-.54-1.03-.21-.33-.5-.59-.85-.78-.65-.38-1.6-.54-2.33-.31s-1.44.69-1.81,1.39l-.31.72c-.14.54-.14,1.07,0,1.61,0,.04.01.09.02.13l-.11-.8c.06.5.09,1,.02,1.49l.11-.8c-.03.24-.09.48-.19.71l.31-.72c-.06.15-.14.28-.23.41l.47-.61c-.07.09-.14.16-.23.23l.61-.47c-.09.07-.18.12-.28.17l.72-.31c-.1.04-.2.07-.3.08l.8-.11c-.11.01-.22.01-.33,0l.8.11c-.13-.02-.25-.05-.38-.1l.72.31c-.13-.06-.26-.13-.37-.22l.61.47c-.12-.09-.22-.2-.31-.31l.47.61c-.09-.12-.17-.25-.23-.39l.31.72c-.06-.14-.1-.28-.12-.43l.11.8c-.02-.16-.02-.32,0-.48l-.11.8c.03-.19.08-.38.15-.56l-.31.72c.1-.24.23-.45.39-.66l-.47.61c.25-.32.55-.6.87-.85l-.61.47c.1-.07.19-.14.29-.21.66-.46,1.17-1.02,1.39-1.81.2-.72.11-1.69-.31-2.33s-1.04-1.22-1.81-1.39-1.67-.16-2.33.31h0Z" style="fill: #fff;"/>
  <path d="M72.14,62.52c-1.91,1.37-2.93,3.42-2.51,5.78s2.93,3.88,5.25,3.21c2.09-.61,3.32-2.25,4-4.23.36-1.03.38-2.19-.05-3.2-.64-1.51-1.95-2.21-3.54-2.33s-3.1,1.48-3.03,3.03c.08,1.74,1.33,2.9,3.03,3.03-.78-.06-1.46-.43-1.88-1.12-.21-.35-.32-.73-.32-1.14,0,.08,0,.15,0,.23.05-1.01.07-.49-.03-.18-.17.52-.04-.03.1-.2-.11.14-.17.34-.26.49-.21.35-.5.41.12-.1-.21.17-.54.4.18-.09-.48.33.69-.16.07-.03-.25.06-.08.04.49-.05-.31,0-.16.03.47.09-.29-.08-.14-.01.44.2-.24-.16-.12-.06.38.3.36.5.45.62.3.38-.13-.26-.07-.12.18.44-.2-.57,0,.51.03.31,0-.06,0-.12,0-.18.02-.31,0-.16-.06.44.02-.08.04-.16.06-.25.1-.29.04-.17-.17.36.04-.08.08-.16.12-.23.17-.25.09-.16-.24.28.19-.15.71-.57-.09,0,1.28-.92,2.03-2.68,1.09-4.14-.82-1.27-2.76-2.07-4.14-1.09h0Z" style="fill: #fff;"/>
  <path d="M81.61,47.31c-1.95-.01-3.78,1.23-4.31,3.15-.44,1.61-.04,3.41,1.16,4.59,1.59,1.56,4.33,1.65,5.93.04s1.85-4.56.09-6.23c-1.15-1.09-3.15-1.23-4.28,0s-1.23,3.12,0,4.28c.21.21.13.1-.24-.33-.19-.53-.26-.68-.2-.45.06.24.04.07-.07-.51-.01.31,0,.16.07-.44-.11.46.38-.69.12-.27.35-.42.45-.54.28-.37-.17.17-.04.07.38-.29.33-.19.69-.28,1.07-.27h-.11c-.31-.01-.15.01.49.08-.19-.06-.13-.02.18.09.3.14.36.16.19.07-.24-.16-.11-.05.39.31-.3-.29.47.71.25.34-.16-.26-.11-.47.15.39-.15-.51.08.4.03.45,0-.06,0-.12,0-.18,0-.2,0-.12-.04.22-.05.34-.06.41-.03.22.01-.06.03-.12.05-.17.04.04-.42.85-.14.4-.28.45-.32.49-.77.76.43-.26-.29.1-.38.13.41-.15-.95.03-.25.04,1.58.01,3.1-1.4,3.03-3.03s-1.33-3.01-3.03-3.03h0Z" style="fill: #fff;"/>
</svg>