<?xml version="1.0" encoding="UTF-8"?>
<svg id="Calque_1" data-name="Calque 1" xmlns="http://www.w3.org/2000/svg" viewBox="0 0 110.43 118.99">
  <path d="M38.34,88.81c-16.43-3.59-27.27-25.33-11.18-36.63,1.44-1.01,2.24-3.42.61-4.75-2.83-2.32-5.78-5.47-4.45-9.41,1.01-2.98,4-5.11,6.8-6.24,3.17-1.28,6.95-1.6,10.15-.25,1.92.8,3.48,2.18,4.67,3.86s1.45,3.72,3.52,4.63c7.55,3.33,15.97-5.16,21.6-8.67,4.01-2.5,9.75-4.11,13.38.21,3.3,3.92.35,9.77-.74,14.02-.34,1.34.24,2.69,1.39,3.42,12.47,7.91,6.53,24.05-2.34,32.31-5.53,5.14-13.22,6.86-20.5,7.91-8.9,1.28-17.96,1.14-26.92.66-3.89-.21-3.88,5.84,0,6.05,18.18.98,42.17,1.7,54.88-13.75,9.6-11.67,12.21-29.35-2.07-38.41l1.39,3.42c2.29-8.98,4.82-18.81-5.96-23.27-9.06-3.75-16,2.84-23.09,7.46-1.78,1.16-3.69,2.35-5.8,2.78-2.94.61-2.17.08-3.8-2.23-2.24-3.19-5.44-5.54-9.2-6.62-6.82-1.95-14.9.37-19.78,5.48-6.44,6.73-4.14,15.44,2.58,20.93l.61-4.75c-20.13,14.14-9.47,42.87,12.62,47.69,3.8.83,5.42-5.01,1.61-5.84h0Z" style="fill: #fff;"/>
  <path d="M34.97,73.62c10.94-6.47,28.84-2.49,39.09,3.67,3.35,2.01,6.39-3.22,3.06-5.23-12.12-7.28-32.37-11.25-45.2-3.67-3.35,1.98-.31,7.22,3.06,5.23h0Z" style="fill: #fff;"/>
  <path d="M74.08,44.7c3.89,0,3.9-6.05,0-6.05s-3.9,6.05,0,6.05h0Z" style="fill: #fff;"/>
  <path d="M34.34,43.71c3.89,0,3.9-6.05,0-6.05s-3.9,6.05,0,6.05h0Z" style="fill: #fff;"/>
  <path d="M48.3,52.2c.82,2.89,3.39,4.75,6.4,4.63,2.55-.1,5.31-1.43,6.04-4.06,1.05-3.76-4.78-5.36-5.84-1.61-.17.6.65-1,.23-.46.25-.32.36-.23-.06-.01.64-.34.07-.04-.12.02-.15.04-.31.08-.46.1.37-.04.44-.06.21-.04-.16,0-1.08-.02-.27.03-.38-.02-.48-.4-.17-.01-.28-.18-.28-.16.02.06l-.17-.17c.21.29.22.29.03-.01.12.3.12.28,0-.08-1.06-3.74-6.91-2.15-5.84,1.61h0Z" style="fill: #fff;"/>
</svg>