<?xml version="1.0" encoding="UTF-8"?>
<svg id="Calque_1" data-name="Calque 1" xmlns="http://www.w3.org/2000/svg" viewBox="0 0 110.43 118.99">
  <path d="M17.29,75.48v-37.3c0-3.55-5.52-3.56-5.52,0v37.3c0,3.55,5.52,3.56,5.52,0h0Z" style="fill: #fff;"/>
  <path d="M16.63,40.14c6.78-3.65,15.47-3.08,22.92-3.63,9.34-.69,18.69-1.39,28.03-2.08,4.57-.34,9.14-.69,13.71-1.02,1.99-.14,4.26-.57,6.24-.32,3.05.39,3.52.72,3.75,3.83.66,8.71.26,17.53.21,26.25-.02,3.55,5.5,3.56,5.52,0,.06-10,1.4-21.22-.73-31.07-.74-3.42-2.76-4.3-6.09-4.49-5.53-.33-11.19.46-16.7.87-11.31.84-22.63,1.68-33.94,2.52-8.55.63-17.93.2-25.7,4.38-3.13,1.68-.34,6.45,2.79,4.76h0Z" style="fill: #fff;"/>
  <path d="M18.69,77.93c25.36-3.46,50.7-7.13,75.89-11.65,3.49-.63,2.01-5.95-1.47-5.32-25.19,4.52-50.54,8.19-75.89,11.65-3.5.48-2.01,5.8,1.47,5.32h0Z" style="fill: #fff;"/>
  <path d="M24.41,77.22c3.58,3.65,6.2,8.6,9.06,12.83,1.98,2.92,6.77.16,4.76-2.79-3.14-4.62-6-9.95-9.92-13.95-2.49-2.54-6.39,1.37-3.9,3.9h0Z" style="fill: #fff;"/>
  <path d="M18.89,76.45c-1.35,3.07-3.18,5.74-5.6,8.06-2.57,2.46,1.34,6.36,3.9,3.9,2.73-2.61,4.94-5.72,6.47-9.18.6-1.36.4-2.96-.99-3.78-1.17-.69-3.17-.38-3.78.99h0Z" style="fill: #fff;"/>
  <path d="M86.26,68.66c2.34,3.63,4.52,7.18,7.69,10.17,2.58,2.43,6.49-1.46,3.9-3.9-2.84-2.67-4.73-5.8-6.83-9.05-1.92-2.97-6.7-.21-4.76,2.79h0Z" style="fill: #fff;"/>
  <path d="M81.17,67.03c-1.93,2.05-3.51,4.47-4.82,6.95-1.66,3.14,3.11,5.93,4.76,2.79,1.09-2.07,2.34-4.12,3.95-5.83,2.43-2.59-1.46-6.5-3.9-3.9h0Z" style="fill: #fff;"/>
  <path d="M46.69,32.75c.69,12.32.25,24.7,1.21,37.01.27,3.52,5.79,3.55,5.52,0-.96-12.31-.52-24.69-1.21-37.01-.2-3.53-5.72-3.55-5.52,0h0Z" style="fill: #fff;"/>
  <path d="M58.93,33.89c.02,11.63.38,23.25.4,34.88,0,3.55,5.52,3.56,5.52,0-.02-11.63-.38-23.25-.4-34.88,0-3.55-5.52-3.56-5.52,0h0Z" style="fill: #fff;"/>
  <path d="M70.55,32.75c.29,10.87.56,21.77,1.29,32.62.24,3.52,5.76,3.55,5.52,0-.73-10.85-1-21.75-1.29-32.62-.1-3.54-5.61-3.56-5.52,0h0Z" style="fill: #fff;"/>
  <path d="M82.05,32.1l-.12,30.03c-.01,3.55,5.5,3.56,5.52,0l.12-30.03c.01-3.55-5.5-3.56-5.52,0h0Z" style="fill: #fff;"/>
  <path d="M23.13,36.99c.75,11.49-.42,23.22.95,34.66.42,3.48,5.94,3.52,5.52,0-1.37-11.44-.19-23.17-.95-34.66-.23-3.53-5.75-3.55-5.52,0h0Z" style="fill: #fff;"/>
  <path d="M34.31,35.1c.75,11.49-.42,23.22.95,34.66.42,3.48,5.94,3.52,5.52,0-1.37-11.44-.19-23.17-.95-34.66-.23-3.53-5.75-3.55-5.52,0h0Z" style="fill: #fff;"/>
</svg>