<?xml version="1.0" encoding="UTF-8"?>
<svg id="Calque_1" data-name="Calque 1" xmlns="http://www.w3.org/2000/svg" viewBox="0 0 110.43 118.99">
  <path d="M51.48,30.5c8.66.77,12.01-15.39-.54-6.25-1.73-8.69-5.27-5.16-6.32-1.17-.45-2.45-5.86-3.73-7.62-2.49-2.88,1.63.8,11.18,4.72,9.73,3.08-.83,6.56-.09,9.75.19Z" style="fill: none; stroke: #fff; stroke-linecap: round; stroke-linejoin: round; stroke-width: 6px;"/>
  <path d="M66.23,60.23c6.72-1.38,17.31,12.09,6.31,11.58,3.57,3.81-4.87,7.22-6.85,3.14,1.54,11.33-23.82-2.95-16.99-13.7" style="fill: none; stroke: #fff; stroke-linecap: round; stroke-linejoin: round; stroke-width: 6px;"/>
  <path d="M54.56,85.8l.63,13.37" style="fill: none; stroke: #fff; stroke-linecap: round; stroke-linejoin: round; stroke-width: 6px;"/>
  <path d="M65.88,85.9c0,4.52-.02,9.04-.03,13.56" style="fill: none; stroke: #fff; stroke-linecap: round; stroke-linejoin: round; stroke-width: 6px;"/>
  <path d="M58.75,100.12c2.79-1.46,7-.81,10.29-.92" style="fill: none; stroke: #fff; stroke-linecap: round; stroke-linejoin: round; stroke-width: 6px;"/>
  <path d="M48.73,99.99c3.38-.76,6.84-1.18,10.3-1.24" style="fill: none; stroke: #fff; stroke-linecap: round; stroke-linejoin: round; stroke-width: 6px;"/>
  <path d="M44.62,39.68c-.36.44-.48,1.16-.36,1.71,1.15,1.8,2.31-2.63.36-1.71Z" style="fill: none; stroke: #fff; stroke-linecap: round; stroke-linejoin: round; stroke-width: 6px;"/>
  <path d="M32.64,47.67c-2.08-.08-11.88-5.4-12.89-7.29.49-5.1,17.25-2.35,18.64-7.36,17.66-12.41,14.21,8.19,20.25,17.57,4.91.91,15.93,3.41,19.38-.29,7.2-11.57,13.88-3.86,5.98,5.5,8.15-9.95,8.42,4.02,3,8.86,6.46-4.9,1.1,7.63-1.1,9.74-31.87,27.4-66.29-.51-48.92-39.06" style="fill: none; stroke: #fff; stroke-linecap: round; stroke-linejoin: round; stroke-width: 6px;"/>
</svg>