<?xml version="1.0" encoding="UTF-8"?>
<svg id="Calque_1" data-name="Calque 1" xmlns="http://www.w3.org/2000/svg" viewBox="0 0 110.43 118.99">
  <path d="M54.8,27.36c18.46-5.25,19.02,36.81,29.07,49.57" style="fill: none; stroke: #fff; stroke-linecap: round; stroke-linejoin: round; stroke-width: 6px;"/>
  <path d="M36.04,40.48c14.3,13.89-5.42,24.99-13.39,36.04,34.05,1.14,33.52,1.71,51.15-27.54" style="fill: none; stroke: #fff; stroke-linecap: round; stroke-linejoin: round; stroke-width: 6px;"/>
  <path d="M14.35,53.64c7.59-2.08,16.62-4.76,23.84-.77" style="fill: none; stroke: #fff; stroke-linecap: round; stroke-linejoin: round; stroke-width: 6px;"/>
  <path d="M30.71,64.16c-20.56-8.25-29.84,26.56-6.83,26.93,14.57,1.81,22.69-22.85,6.83-26.93Z" style="fill: none; stroke: #fff; stroke-linecap: round; stroke-linejoin: round; stroke-width: 6px;"/>
  <path d="M73.47,66.83c-15.28,15.17,6.51,32.79,21.36,21.84,15.54-13.6-7.55-35.81-21.36-21.84Z" style="fill: none; stroke: #fff; stroke-linecap: round; stroke-linejoin: round; stroke-width: 6px;"/>
  <path d="M36.17,40.66c6.64,11.92,12.77,24.11,18.37,36.55" style="fill: none; stroke: #fff; stroke-linecap: round; stroke-linejoin: round; stroke-width: 6px;"/>
  <path d="M47,57.05c11.25,1.55,13.94-12.65,21.46-18.53" style="fill: none; stroke: #fff; stroke-linecap: round; stroke-linejoin: round; stroke-width: 6px;"/>
  <path d="M30.86,40.4c5.26,0,10.53,0,15.79,0" style="fill: none; stroke: #fff; stroke-linecap: round; stroke-linejoin: round; stroke-width: 6px;"/>
</svg>