<?xml version="1.0" encoding="UTF-8"?>
<svg id="Calque_1" data-name="Calque 1" xmlns="http://www.w3.org/2000/svg" viewBox="0 0 110.43 118.99">
  <path d="M66.42,42.57c5.43,1.5,9.32,6.86,7.53,12.55-2.22,7.03-9.71,7.78-15.9,6.34-3.09-.72-6.43-1.83-7.29-5.34-.64-2.63.37-6.03,1.15-8.54,2.29-7.29,9.73-6.75,15.89-5.24,3.77.93,5.38-4.89,1.61-5.82-9.16-2.25-19.78-1.53-23.14,8.82-3.31,10.22-1.19,19.31,10.17,21.94,9.38,2.18,19.47.07,23.08-9.9,3.24-8.97-2.66-18.2-11.49-20.64-3.75-1.04-5.35,4.79-1.61,5.82h0Z" style="fill: #fff;"/>
  <path d="M61.33,50.99c.64.11,1.29.2,1.91.4.25.08.58.52.56.17s-.07.05-.33.1c-.3.06-.58.23-.89.28-.63.1-.7-.07-1.3-.1-.13,0-.26-.29-.41-.29-.88.02.09.62-.03.53.1.08,1.83-.05,2.11-.02,1.62.19,3.02-1.52,3.02-3.02,0-1.79-1.39-2.83-3.02-3.02-3.7-.43-8.05,1.47-8.11,5.74-.06,3.7,3.82,6.25,7.2,6.24s7.08-1.99,7.69-5.63c.71-4.26-3.17-6.6-6.8-7.21-1.61-.27-3.25.43-3.71,2.11-.4,1.45.49,3.44,2.11,3.71h0Z" style="fill: #fff;"/>
  <path d="M65.89,39.76c6.28-4.15,11.37-11.13,18.83-4.56.79.69,2.88,2.11,3.19,3.2.7,2.46-1,2.93-2.73,4.34-2.98,2.43-5.97,4.87-8.95,7.3s1.28,6.71,4.27,4.27c2.74-2.23,5.47-4.46,8.21-6.7,1.91-1.56,4.71-3.2,5.86-5.51,2.1-4.23-2.12-7.94-4.9-10.57-3.61-3.42-7.83-6.26-13.03-5.29-5.51,1.03-9.3,5.33-13.78,8.29-3.23,2.13-.21,7.36,3.05,5.21h0Z" style="fill: #fff;"/>
  <path d="M45.39,50.52c-7.51,5.27-13.12,12.24-18.84,19.32-2.82,3.49-5.93,6.7-8.85,10.1-2.07,2.42-3.31,5.51-1.67,8.53,5.04,9.31,14.69.76,20.32-2.72,10.06-6.21,20.12-12.41,30.18-18.62,3.3-2.04.27-7.26-3.05-5.21-6.71,4.14-13.42,8.28-20.12,12.41-3.35,2.07-6.71,4.14-10.06,6.21-1.68,1.03-3.35,2.07-5.03,3.1-1.78,1.1-4.35,3.91-5.86,2.08s.85-2.85,2.16-4.28c1.09-1.18,2.14-2.39,3.17-3.62,2.08-2.46,4.07-4.99,6.09-7.49,4.36-5.38,8.89-10.61,14.59-14.62,3.16-2.22.14-7.45-3.05-5.21h0Z" style="fill: #fff;"/>
</svg>