<?xml version="1.0" encoding="UTF-8"?>
<svg id="Calque_1" data-name="Calque 1" xmlns="http://www.w3.org/2000/svg" viewBox="0 0 110.43 118.99">
  <path d="M55.19,30.33c-8.66,1.06-17.7,1.48-26.24,3.27-6.56,1.38-8.92,6.89-9.69,13.02-1.83,14.48-.09,32.66,11.52,42.99,5.21,4.64,11.6,6.17,18.47,5.93,7.29-.26,15.25-1.07,22.09-3.71,12.47-4.82,21.41-17.96,18.72-31.57-1.57-7.94-7.11-14.23-12.65-19.8-5.63-5.68-12.56-11.26-21-8.94-3.74,1.03-2.15,6.85,1.61,5.82,7.78-2.13,14.92,6.78,19.46,12.02,4.88,5.64,8.2,12.3,6.55,19.9-3.42,15.79-19.2,19.27-33.12,20.15-7.17.45-13.51-.84-18.3-6.57-5.07-6.07-7.16-14.23-7.72-21.96-.44-6.03-1.73-18.67,5.02-21.33,3.3-1.3,8.1-1.09,11.6-1.51,4.56-.56,9.12-1.11,13.68-1.67,3.81-.46,3.85-6.51,0-6.04h0Z" style="fill: #fff;"/>
  <path d="M54.91,44.46c-3.5.43-7.01.85-10.51,1.28-2.28.28-4.63.36-6.53,1.8-3.61,2.72-3.57,8.61-3.47,12.67.29,11.7,6.34,22.08,19.13,21.09,10.06-.77,21.21-5.18,21.26-17.09.04-8.83-10.19-21.09-19.63-19.08-3.8.81-2.19,6.63,1.61,5.82,3.36-.71,6.75,3.56,8.65,5.79,2.56,3,4.12,6.39,2.84,10.33-2.27,7.04-10.87,8.47-17.32,8.34-8.59-.18-10.64-9.91-10.5-16.86.07-3.52-.02-6.26,3.96-6.77,3.5-.45,7.01-.86,10.51-1.28,3.81-.46,3.85-6.51,0-6.04h0Z" style="fill: #fff;"/>
  <path d="M54.66,57.23c-1.51.18-3.3.11-4.54,1.11s-1.59,2.66-1.53,4.23c.13,3.27,2.21,6.32,5.79,6.08,3.1-.21,6.29-1.95,6.25-5.5-.02-1.6-.81-2.96-1.89-4.08-1.33-1.37-2.79-1.95-4.7-1.64-1.61.27-2.51,2.26-2.11,3.71.47,1.71,2.1,2.38,3.71,2.11l.31-.05h-1.61c-.03-.05-.08-.09-.13-.12-.13-.07-.05.01.24.25.46.27.12.49.12-.19,0-.11.21-.47.2-.53-.04-.14-.28-.02-.26-.02.21,0-.71.01-.71.03.39,0,.68.13.89.38.02.02.03.04.03.07-.04.04-.12-.77-.11-.71-.04-.36.13-.43-.07-.14l-1.08,1.08-.53.16.64-.08,1.07-.13c1.62-.2,3.02-1.25,3.02-3.02,0-1.48-1.39-3.22-3.02-3.02h0Z" style="fill: #fff;"/>
</svg>