<?xml version="1.0" encoding="UTF-8"?>
<svg id="Calque_1" data-name="Calque 1" xmlns="http://www.w3.org/2000/svg" viewBox="0 0 110.43 118.99">
  <path d="M32.86,50.3c-10.1,1.24-17.04,8.17-15.57,18.72,1.18,8.52,7.84,18.95,17.46,18.42,17.64-.97,10.75-31.44.51-37.7-3.32-2.03-6.36,3.19-3.05,5.21,4.25,2.6,6.07,8.42,6.81,13.06.59,3.68,1.13,11.19-3.15,13.09-9.73,4.3-20.9-22.58-3.01-24.77,3.81-.47,3.85-6.51,0-6.04h0Z" style="fill: #fff;"/>
  <path d="M41.64,56.33c8.23.71,16.5,0,24.74.15,7.11.13,16.08.39,21.63,5.52,6.4,5.92,6.2,17.32-1.07,22.29s-18.52,3.73-27.04,2.56c-10.38-1.44-20.9-4.33-31.44-3.91-3.87.15-3.89,6.19,0,6.04,11.07-.44,22.09,2.76,33.01,4.12,9.75,1.21,21.28,1.85,29.6-4.37s9.62-17.62,4.67-26.55c-4.22-7.61-12.87-10.28-20.99-11.22-11-1.27-22.08.29-33.09-.66-3.87-.34-3.85,5.7,0,6.04h0Z" style="fill: #fff;"/>
  <path d="M50.28,46.53c1.95-14.56,23.06-6.57,22.68,5.57-.12,3.89,5.92,3.88,6.04,0,.63-20.15-31.75-27.99-34.76-5.57-.52,3.84,5.53,3.8,6.04,0h0Z" style="fill: #fff;"/>
</svg>