<?xml version="1.0" encoding="UTF-8"?>
<svg id="Calque_1" data-name="Calque 1" xmlns="http://www.w3.org/2000/svg" viewBox="0 0 110.43 118.99">
  <path d="M64.24,60.05c-9.17-19.3-28.07,8.25-11.76,14.72,16.22,3.29,23.04-16.99,6.04-19.61" style="fill: none; stroke: #fff; stroke-linecap: round; stroke-linejoin: round; stroke-width: 6px;"/>
  <path d="M55.08,44.16c1.2-3.77,1.01-12.81.74-16.76" style="fill: none; stroke: #fff; stroke-linecap: round; stroke-linejoin: round; stroke-width: 6px;"/>
  <path d="M70.47,49.73c1.59-1.03,5.96-9.38,6.66-11.14" style="fill: none; stroke: #fff; stroke-linecap: round; stroke-linejoin: round; stroke-width: 6px;"/>
  <path d="M77.13,66.1c.47.04.94.06,1.4.13,4.3.65,9.47,1.11,15.18,1.45" style="fill: none; stroke: #fff; stroke-linecap: round; stroke-linejoin: round; stroke-width: 6px;"/>
  <path d="M65.94,82.54c.73,4.24,3.93,9.2,7.86,11.17" style="fill: none; stroke: #fff; stroke-linecap: round; stroke-linejoin: round; stroke-width: 6px;"/>
  <path d="M49.7,84.9c-1.58,5.88-3.16,11.76-4.75,17.63" style="fill: none; stroke: #fff; stroke-linecap: round; stroke-linejoin: round; stroke-width: 6px;"/>
  <path d="M37.6,58.96c-.64-.64-1.52-.95-2.37-1.25-4.26-1.49-8.52-2.99-12.79-4.48" style="fill: none; stroke: #fff; stroke-linecap: round; stroke-linejoin: round; stroke-width: 6px;"/>
  <path d="M39.04,75.07c-1.97.61-7.64,5.53-8.89,7.16" style="fill: none; stroke: #fff; stroke-linecap: round; stroke-linejoin: round; stroke-width: 6px;"/>
</svg>