<?xml version="1.0" encoding="UTF-8"?>
<svg id="Calque_1" data-name="Calque 1" xmlns="http://www.w3.org/2000/svg" viewBox="0 0 110.43 118.99">
  <path d="M75.58,47.27c1.54-2.32,2.69-4.85,3.51-7.51l-5.93-.8c.09,4.31.4,9.93-3.01,13.18s-10.07,3.98-14.41,2.82-7.27-4.31-9-8.21.66-8.63,3.5-11.58l-5.05-2.94c-.96,2.61-1.46,5.31-1.53,8.09-.1,3.89,5.94,3.88,6.04,0,.06-2.24.54-4.38,1.32-6.48,1.07-2.89-3.04-5.01-5.05-2.94-4.02,4.16-7.35,10.84-5.42,16.66s6.51,10.81,12.3,12.82c6.18,2.15,14.35,1.21,19.78-2.53,6.2-4.27,6.69-12.04,6.56-18.9-.07-3.42-4.93-4.08-5.93-.8-.67,2.18-1.63,4.17-2.9,6.07-2.16,3.25,3.07,6.27,5.21,3.05h0Z" style="fill: #fff;"/>
  <path d="M60.05,35.49c-4.88,20.55-11.79,39.72-21.35,58.52-1.76,3.46,3.45,6.52,5.21,3.05,9.79-19.26,16.95-38.91,21.95-59.97.9-3.78-4.92-5.39-5.82-1.61h0Z" style="fill: #fff;"/>
</svg>