<?xml version="1.0" encoding="UTF-8"?>
<svg id="Calque_1" data-name="Calque 1" xmlns="http://www.w3.org/2000/svg" viewBox="0 0 110.43 118.99">
  <path d="M44.2,82.9c-.6,2.67-3.79,2.76-5.86,1.76-1.36-.66-2.51-1.75-3.55-2.82-.46-.47-1.14-1.03-1.46-1.6-.58-1.03-.72-.81.21-2,1.7-2.16,4.6-4.17,7.48-3.55,2.49.54,4.63,3.49,3.29,5.93-1.88,3.41,3.34,6.46,5.21,3.05,2.91-5.28.2-11.83-5.21-14.24-6.07-2.7-13.01,1.07-16.37,6.25-1.86,2.86-1.75,5.35.42,8.01s4.73,5.22,7.89,6.62c5.26,2.34,12.4.27,13.78-5.81.86-3.78-4.96-5.4-5.82-1.61h0Z" style="fill: #fff;"/>
  <path d="M69.76,65.31c2.98-2.09,5.48,1.45,6.07,4.12.34,1.57.48,3.43.3,5.04s.65.53-.64,1.23c-.62.33-1.6.3-2.26.32-2.7.11-6.08-.82-7.11-3.62-.72-1.94-.12-4.8,2.03-5.5,3.68-1.2,2.1-7.04-1.61-5.82-5.37,1.76-7.86,7.68-6.23,12.97,1.94,6.27,9.07,8.69,15.05,7.8,3.04-.45,5.97-1.58,6.64-4.87.63-3.09.32-7.09-.58-10.08-1.79-5.96-8.83-10.93-14.7-6.8-3.15,2.22-.14,7.46,3.05,5.21h0Z" style="fill: #fff;"/>
  <path d="M79.42,31.02c-8.4,5.29-16.37,11.25-23.73,17.92-6.62,6-14.66,12.78-17.11,21.71-1.03,3.75,4.8,5.35,5.82,1.61,2.21-8.09,10.8-14.85,16.86-20.22,6.62-5.87,13.71-11.09,21.19-15.8,3.28-2.06.25-7.29-3.05-5.21h0Z" style="fill: #fff;"/>
  <path d="M61.91,45.76c-.78,6.06-.06,12.06,2.11,17.77,1.36,3.6,7.2,2.04,5.82-1.61-2-5.27-2.61-10.57-1.89-16.16.49-3.84-5.55-3.81-6.04,0h0Z" style="fill: #fff;"/>
</svg>