<?xml version="1.0" encoding="UTF-8"?>
<svg id="Calque_1" data-name="Calque 1" xmlns="http://www.w3.org/2000/svg" viewBox="0 0 110.43 118.99">
  <path d="M22.52,93.71c2.23-2.9,3.73-6.1,4.32-9.73.67-4.17-.36-8.26.22-12.45h-5.27c.84,4.46,2.2,11.75,8.41,9.3,5.75-2.27,8.43-10.3,10.92-15.3l-4.99-2.1c-1.1,3.17-5.56,13.28-.91,15.6,1.98.99,3.79-.04,5.24-1.44,3.13-3.01,5.75-6.83,8.55-10.15,2.24-2.66-1.27-6.31-3.86-3.86-3.29,3.11-11.1,11.75-7.38,16.83,4.12,5.63,13.45-4.49,15.87-7.18l-3.86-3.86c-3.03,3.67-10.18,11.11-8.87,16.48,1.64,6.72,10.62-.44,13.2-2.07,2.97-1.87.32-6.45-2.76-4.72-4.97,2.8-8.3,7.1-11.88,11.43-1.77,2.14-3.77,4.78-6.22,6.2-5.14,2.98-8.62-1.63-11.44-5.24-2.16-2.77-6,1.12-3.86,3.86,4.76,6.09,11.42,10.84,18.73,5.66,6.76-4.79,10.1-13.07,17.42-17.19l-2.76-4.72c-.51.32-5.96,4.33-6.39,4.07l1.35,2.36c.02-4.32,4.77-9.17,7.32-12.25,2.2-2.67-1.48-6.51-3.86-3.86-1.11,1.24-6.96,6.13-6.85,6.53-.69-2.42,4.5-6.96,6.08-8.45l-3.86-3.86c-.6.71-8.9,9.46-8.55,10.15,2.14,4.26,2.85-2.14,2.93-2.48.49-2.17,1.15-4.27,1.88-6.37,1-2.9-3.61-4.88-4.99-2.1-1.46,2.93-2.82,5.96-4.5,8.78-.64,1.08-2,4.18-3.65,3.41-.72-.33-1.08-4.27-1.19-4.88-.48-2.55-4.9-2.67-5.27,0-1.06,7.63,1.11,14.24-3.99,20.87-2.14,2.79,2.6,5.51,4.72,2.76h0Z" style="fill: #fff;"/>
  <path d="M25.06,22.36c2.47,2.63,5.35,4.71,8.77,5.92,4.21,1.49,8.72,1.14,12.98,2.47l.73-5.36c-4.56.11-11.94.07-10.84,6.55s9.1,10.44,13.71,13.76l2.76-4.72c-3.07-1.66-12.52-7.76-15.53-3.46-1.29,1.85-.49,3.72.68,5.38,2.58,3.65,5.93,6.95,8.85,10.35,2,2.34,6.03-.74,4.29-3.31-2.5-3.7-10-13.31-15.65-10.2-6.17,3.4,2.51,14.15,4.9,17.13l3.86-3.86c-2.87-3.29-9.66-12.08-14.98-11.06-6.42,1.23-.67,10.88.54,13.74s6.06.8,4.99-2.1c-1.91-5.18-5.28-9.12-8.88-13.2-1.99-2.25-4.65-4.84-5.71-7.73-1.98-5.41,2.85-8.15,6.84-10.33,3.09-1.69.33-6.41-2.76-4.72-6.08,3.33-12.43,8.68-9.45,16.35,3.17,8.16,11.66,12.85,14.69,21.09l4.99-2.1c-.23-.54-3-6.33-2.96-6.37l-2.66.7c4.62.78,8.57,6.27,11.48,9.6,2.35,2.69,6.02-1.17,3.86-3.86-1.36-1.7-2.37-3.42-3.62-5.17-.61-.86-3.81-3.42-1.37-2.22,3.1,1.54,5.26,4.26,7.16,7.07l4.29-3.31c-1.23-1.44-2.47-2.88-3.7-4.32-.33-.39-3.24-4.31-3.7-4.32l-1.67,1.18c1.35.45,2.68.96,3.99,1.53,1.52.67,2.99,1.44,4.46,2.23,3.15,1.7,5.57-2.69,2.76-4.72s-5.94-3.97-8.48-6.39c-.59-.56-3.01-3.28-3.07-3.15.33-.73,5.26-.58,5.93-.59,3.1-.07,3.69-4.45.73-5.36-7.1-2.2-13.8-1.07-19.35-6.99-2.41-2.57-6.27,1.3-3.86,3.86h0Z" style="fill: #fff;"/>
  <path d="M90.83,23.82c-1.82,3.13-3,6.48-3.19,10.13-.24,4.46,1.41,8.68,1.38,13.15l5.36-.73c-1.41-4.33-3.44-11.42-9.33-8.6s-7.45,11.73-9.28,17.05l5.27,1.45c.71-3.47,4.1-14.67-1.38-16.05-2.15-.54-3.67.94-4.87,2.51-2.66,3.47-4.8,7.49-7.16,11.17-1.64,2.56,2.31,5.75,4.29,3.31,2.79-3.44,10.19-13.83,5.12-18.14s-12.51,6.44-14.74,9.69l4.72,2.76c2.23-3.55,9.19-13.25,6.22-17.87-3.35-5.2-10.38,2.63-12.83,4.66s.82,6.15,3.31,4.29c4.39-3.29,7.2-7.54,10.05-12.16,1.55-2.5,3.12-5.34,5.32-7.32,4.83-4.35,8.81-.54,12.35,2.95,2.51,2.47,6.37-1.39,3.86-3.86-5.23-5.16-12.36-9.57-18.98-3.96s-8.55,14.55-15.35,19.64l3.31,4.29c.43-.36,5.33-4.74,5.23-4.79l-1.35-2.36c.58,4.68-3.49,9.99-5.84,13.73-1.89,3.01,2.75,5.62,4.72,2.76,1.03-1.5,2.1-2.95,3.31-4.31.27-.31,2.92-3.77,2.56-3.67-.06.02-1.24,4.42-1.46,4.86-.89,1.79-2.11,3.42-3.36,4.96l4.29,3.31c1.02-1.6,2.05-3.19,3.07-4.79.7-1.09,2.42-2.79,2.56-3.99.77-.62.68-1.07-.28-1.36-1.03-1.08-1.33-.62-.9,1.37-.73,2.08-.59,4.74-1.03,6.94-.7,3.45,4.12,4.78,5.27,1.45s2.09-6.82,3.65-9.96c.38-.77,2.05-4,2.13-4.01.6-.09,2.11,4.92,2.3,5.52.94,2.88,5.34,2.44,5.36-.73.06-7.36-2.96-13.57,1.07-20.52,1.77-3.05-2.95-5.8-4.72-2.76h0Z" style="fill: #fff;"/>
  <path d="M84.13,98.77c-1.94-2.95-4.31-5.46-7.38-7.26-3.94-2.31-8.53-2.67-12.59-4.72l-2.1,4.99c4.48.65,11.75,2.13,12.06-4.32s-7.16-12.01-11.07-15.96l-3.86,3.86c2.82,2.2,10.88,9.76,14.73,6.31,1.69-1.52,1.36-3.46.51-5.35-1.82-4.05-4.68-7.88-6.98-11.7-1.85-3.07-6.15-.39-4.72,2.76,1.83,4.02,7.68,14.4,13.63,12.18,6.4-2.39-.07-14.09-1.94-17.45l-4.72,2.76c2.39,3.89,7.38,13.33,12.79,13.57,6.78.3,2.82-10.38,2.11-13.37-.82-3.45-5.91-1.96-5.27,1.45,1.02,5.41,3.89,9.86,6.74,14.47,1.51,2.44,3.29,5.09,4.01,7.9,1.43,5.62-3.83,7.72-8.14,9.21-3.3,1.14-1.88,6.42,1.45,5.27,6.9-2.39,14.17-6.7,12.16-15.16s-9.32-14.51-10.94-23.15l-5.27,1.45c.17.72,2.22,6.79,1.59,7.31l2.66-.7c-4.09-1.42-7.05-7.57-9.16-11.01-1.84-2.99-6.43-.32-4.72,2.76.74,1.33,5.29,9,3.67,10.26l2.66-.7c-4.38-.72-6.96-6.24-8.59-9.81l-4.72,2.76c.98,1.62,1.95,3.25,2.93,4.87.34.57,2.34,4.67,2.93,4.87l2.2-.56c-.98-.52-1.94-1.08-2.88-1.66-1.69-1.04-3.3-2.19-4.87-3.41-2.69-2.1-6.41,1.29-3.86,3.86,2.3,2.33,4.73,4.6,6.85,7.1.4.47,3.43,4.36,3.42,4.38-.28.56-5.89-.32-5.95-.33-2.78-.4-5.13,3.46-2.1,4.99,6.55,3.3,13.62,3.35,18.01,10.02,1.92,2.92,6.66.19,4.72-2.76h0Z" style="fill: #fff;"/>
</svg>