<?xml version="1.0" encoding="UTF-8"?>
<svg id="Calque_1" data-name="Calque 1" xmlns="http://www.w3.org/2000/svg" viewBox="0 0 110.43 118.99">
  <path d="M30.73,44.25c-2.27,6.84-4.09,16.39,2.69,21.19,1.24.93,2.82,1.1,4.24.48,11.58-5.22,15.81-30.39,17.01-42.13-3.67-.21-11.75-4.52-15.82-3.79-3.01,6.94-5.93,18.69-8.12,24.24Z" style="fill: none; stroke: #fff; stroke-linecap: round; stroke-linejoin: round; stroke-width: 6px;"/>
  <path d="M13.81,100.93c8.34.64,13.87-4.22,15.25-12.36,1.91-7.08,3.63-14.21,5.15-21.39" style="fill: none; stroke: #fff; stroke-linecap: round; stroke-linejoin: round; stroke-width: 6px;"/>
  <path d="M27.95,92.54c-2.73,9.32,2.75,11.79,5.81,13.83-5.88-1.68-13.16-4.27-19.29-5.34" style="fill: none; stroke: #fff; stroke-linecap: round; stroke-linejoin: round; stroke-width: 6px;"/>
  <path d="M64.13,48.66c1.54,11.13,17.23,18.14,18.4,3.19.92-13.83-4.89-26.91-10.5-39.24,0-.02-9.17,2.87-15.75,4.01,1.44,10.2,4.78,22.2,7.85,32.04Z" style="fill: none; stroke: #fff; stroke-linecap: round; stroke-linejoin: round; stroke-width: 6px;"/>
  <path d="M77.34,61.85c2.14,7.63,4.28,15.26,6.42,22.89,2.44,5.67,1.11,11.45-5.68,13.97,6-2.23,12.48-2.93,18.54-4.98-4.12.25-9.02,2.16-12.87-8.99" style="fill: none; stroke: #fff; stroke-linecap: round; stroke-linejoin: round; stroke-width: 6px;"/>
  <path d="M34.55,32.41c6.19-.67,12.37-1.46,18.52-2.38" style="fill: none; stroke: #fff; stroke-linecap: round; stroke-linejoin: round; stroke-width: 6px;"/>
  <path d="M58.45,22.79c5.87.5,11.65,1.74,17.47,2.61" style="fill: none; stroke: #fff; stroke-linecap: round; stroke-linejoin: round; stroke-width: 6px;"/>
</svg>