<?xml version="1.0" encoding="UTF-8"?>
<svg id="Calque_1" data-name="Calque 1" xmlns="http://www.w3.org/2000/svg" viewBox="0 0 110.43 118.99">
  <path d="M61.35,81.14c-8.41.42-17.63.97-24.95-3.94-5.64-3.78-10.47-11.21-9.9-18.25s10.84-14.5,16.85-17.3c7.24-3.38,16.05-4.63,23.98-3.92,6.46.58,21.15,7.49,15.46,16.24-3.81,5.87-13.29,9.09-19.75,10.46-5.55,1.17-15.13,2.07-19.23-3.06-2-2.49.26-3.68,2.53-4.89,1.79-.95,3.67-1.68,5.64-2.15,3.99-.94,7.95-.82,11.92.16s5.39-4.9,1.61-5.84c-8.2-2.03-17.05-.95-24.19,3.75-6.34,4.17-6.14,10.01-.24,14.57,12.24,9.44,34.7,2.87,44.66-7.19,5.82-5.88,4.95-13.54-.24-19.54-5.7-6.59-13.99-8.81-22.43-8.69-9.4.13-19.21,2.13-27.18,7.31-6.12,3.98-14.31,10.98-15.32,18.67-1.17,8.91,4.11,18.24,10.95,23.58,8.56,6.66,19.49,6.6,29.81,6.08,3.88-.19,3.9-6.25,0-6.05h0Z" style="fill: #fff;"/>
</svg>