<?xml version="1.0" encoding="UTF-8"?>
<svg id="Calque_1" data-name="Calque 1" xmlns="http://www.w3.org/2000/svg" viewBox="0 0 110.43 118.99">
  <path d="M55.36,40.78c1.34-.47,2.7-.9,4.07-1.28,1.46-.41,3.01-.77,4.49-.4,1.75.44,5.32,1.83,6.46,3.23,3.95,4.84,4.58,10.56,6.11,16.62,1.91,7.62,1.7,15.64,3.47,23.29.45,1.95,1.2,4.08,3,4.94,2.02.98,4.39-.07,6.35-1.15.08,2.03-.89,4.04-2.44,5.35s-3.63,1.92-5.66,1.82c-.41-.02-.86-.06-1.21.16-.23.15-.38.38-.54.61-2.01,2.86-6.09,4.03-9.31,2.67-1.68,2.36-5.31,3.04-7.73,1.44,0,0-2.01,1.71-4.54,2.4s-7.86.68-10.02-3.01c-1.55.83-2.73,1.88-4.23,1.29s-2.57-1.96-3.34-3.39c-1,1.28-2.47,2.37-4.09,2.29-2.35-.11-3.84-2.43-5.2-4.35-.17-.24-.36-.49-.64-.59-.24-.09-.51-.05-.77-.02-1.96.22-4.03-.19-5.65-1.32s-2.77-2.99-2.84-4.96c2.53.52,5.25-.17,7.33-1.7s3.53-3.85,4.15-6.36c.48-1.93.48-3.93.48-5.91,0-5.01.01-10.03.02-15.04,0-2.65,0-5.33.6-7.91s1.84-5.1,3.91-6.75c1.15-.91,2.51-1.52,3.9-2,4.82-1.67,10.55-1.68,14.61,1.39" style="fill: none; stroke: #fff; stroke-linecap: round; stroke-linejoin: round; stroke-width: 6px;"/>
  <path d="M36.3,59.65c1.68,1.06,3.8,1.08,5.78,1.06,1.06-.01,2.13-.02,3.14-.35,1.39-.45,2.53-1.47,3.52-2.55,2.98-3.22,5.08-7.14,7.15-11" style="fill: none; stroke: #fff; stroke-linecap: round; stroke-linejoin: round; stroke-width: 6px;"/>
  <path d="M38.52,61.46c-.16,2.58-.33,5.2.2,7.73s1.07,6.6,2.5,8.75c1.01,1.51,3.19,3.47,7.97,5.41s6.16,1.33,9.25.94c3.09-.38,8.97-2.59,11.19-5.93,1.41-2.13,1.48-6.46,1.66-8.46.25-2.84-.13-4.09.21-6.92.15-1.23-.02-1.86,1.11-2.32s2.27-.61,3.35-1.24" style="fill: none; stroke: #fff; stroke-linecap: round; stroke-linejoin: round; stroke-width: 6px;"/>
  <path d="M52.35,75.63c.73.53,1.64.81,2.55.79,1.44-.03,2.77-.79,3.92-1.67" style="fill: none; stroke: #fff; stroke-linecap: round; stroke-linejoin: round; stroke-width: 6px;"/>
  <path d="M62.77,66.97c-.27-.35-.65-.61-1.08-.73-.68-.19-1.4-.02-2.06.23" style="fill: none; stroke: #fff; stroke-linecap: round; stroke-linejoin: round; stroke-width: 6px;"/>
  <path d="M50.68,66.5c-.41-.17-.87-.21-1.29-.1-.68.17-1.23.68-1.68,1.21" style="fill: none; stroke: #fff; stroke-linecap: round; stroke-linejoin: round; stroke-width: 6px;"/>
  <path d="M72.56,61.82c.93-.34,2.02.04,2.68.77s.92,1.76.89,2.75c-.01.38-.06.75-.22,1.1-.23.53-.68.94-1.17,1.24-.89.56-1.97.83-3.02.75" style="fill: none; stroke: #fff; stroke-linecap: round; stroke-linejoin: round; stroke-width: 6px;"/>
  <path d="M38.15,62.24c-.36-.52-1.16-.46-1.72-.17-.58.31-1.05.83-1.3,1.44-.29.72-.29,1.51-.28,2.29,0,.45.02.94.29,1.31.16.22.41.38.65.5.73.37,1.56.56,2.38.53-.2-.29-.46-.54-.76-.72" style="fill: none; stroke: #fff; stroke-linecap: round; stroke-linejoin: round; stroke-width: 6px;"/>
  <path d="M38.22,64.25c-.57.16-.97.76-.89,1.35" style="fill: none; stroke: #fff; stroke-linecap: round; stroke-linejoin: round; stroke-width: 6px;"/>
  <path d="M72.33,64.38c.5-.1,1.05.11,1.36.53s.34,1.01.09,1.45" style="fill: none; stroke: #fff; stroke-linecap: round; stroke-linejoin: round; stroke-width: 6px;"/>
  <path d="M39.42,41.34c.67.27,1.44-1.77,1.64-2.46.86-2.88,1.27-5.89,1.19-8.89" style="fill: none; stroke: #fff; stroke-linecap: round; stroke-linejoin: round; stroke-width: 6px;"/>
  <path d="M45.26,29.14c.98,2.35,2.31,4.55,3.94,6.51,1.02-2.72,2.05-5.44,3.07-8.15" style="fill: none; stroke: #fff; stroke-linecap: round; stroke-linejoin: round; stroke-width: 6px;"/>
  <path d="M55.83,26.25c.34,2.92,1.38,5.77,2.99,8.23,1.42-1.53,2.81-3.09,4.17-4.69" style="fill: none; stroke: #fff; stroke-linecap: round; stroke-linejoin: round; stroke-width: 6px;"/>
  <path d="M67.73,29.77c-1.57,3.21-2.02,6.95-1.26,10.44" style="fill: none; stroke: #fff; stroke-linecap: round; stroke-linejoin: round; stroke-width: 6px;"/>
  <path d="M65.02,23.66c-.61.67-1.15,1.48-1.13,2.38.03,1.11.94,2.03,1.97,2.43s2.17.38,3.28.36c.47-.01.96-.03,1.39-.24.82-.42,1.13-1.47,1.03-2.39-.38-3.81-3.91-5.41-6.54-2.54Z" style="fill: none; stroke: #fff; stroke-linecap: round; stroke-linejoin: round; stroke-width: 6px;"/>
  <path d="M50.59,21.1c-.13.45-.23.91-.2,1.37.06,1.01.78,1.91,1.67,2.4s1.93.63,2.95.64c.69,0,1.45-.07,1.96-.53.6-.53.7-1.41.77-2.21.39-4.64-5.72-6.77-7.15-1.67Z" style="fill: none; stroke: #fff; stroke-linecap: round; stroke-linejoin: round; stroke-width: 6px;"/>
  <path d="M36.67,25.05c-.07.78-.04,1.62.4,2.28.77,1.14,2.38,1.23,3.76,1.19.87-.02,1.8-.06,2.49-.6,1.16-.9,1.04-2.65.8-4.1-.09-.53-3.65-2.25-4.31-2.32-2.03-.2-2.98,1.84-3.14,3.54Z" style="fill: none; stroke: #fff; stroke-linecap: round; stroke-linejoin: round; stroke-width: 6px;"/>
  <path d="M54.07,50.81c1.85,3.83,5.13,6.95,9.04,8.61s8.43,1.86,12.47.53" style="fill: none; stroke: #fff; stroke-linecap: round; stroke-linejoin: round; stroke-width: 6px;"/>
</svg>