<?xml version="1.0" encoding="UTF-8"?>
<svg id="Calque_1" data-name="Calque 1" xmlns="http://www.w3.org/2000/svg" viewBox="0 0 110.43 118.99">
  <path d="M83.66,74.94c-1.81-3.16-1.81-7.1.19-10.14,6.1-9.27,6.53-21.75-.26-31.74-8.19-12.05-24.57-15.92-37.32-8.86-7.4,4.1-12.25,10.98-13.98,18.6,1.79,1.52,2.99,3.74,3.12,6.28.15,2.79-1.02,5.35-2.95,7.07.62,2.45,1.58,4.85,2.89,7.15,5.51,9.6,15.76,14.78,26.1,14.28,3.68-.18,7.13,1.76,8.96,4.95l9.05,15.79,13.25-7.6-9.05-15.78Z" style="fill: none; stroke: #fff; stroke-linecap: round; stroke-linejoin: round; stroke-width: 6px;"/>
  <line x1="88.58" y1="47.78" x2="48.09" y2="71" style="fill: none; stroke: #fff; stroke-linecap: round; stroke-linejoin: round; stroke-width: 6px;"/>
  <circle cx="26.57" cy="49.54" r="8.85" style="fill: none; stroke: #fff; stroke-linecap: round; stroke-linejoin: round; stroke-width: 6px;"/>
</svg>