<?xml version="1.0" encoding="UTF-8"?>
<svg id="Calque_1" data-name="Calque 1" xmlns="http://www.w3.org/2000/svg" viewBox="0 0 110.43 118.99">
  <path d="M56.83,42.32c3.3,11.1,4.26,22.78.62,33.75,2.6,9.74,15.84,12.45,23.33,7.77,14.59-9.13,19.39-24.73,20.55-39.63-13.77,1.22-27.43-4.11-39.49-10.27-1.78,2.64-4.35,5.23-5.02,8.39Z" style="fill: none; stroke: #fff; stroke-linecap: round; stroke-linejoin: round; stroke-width: 6px;"/>
  <path d="M65.84,51.81c-1.64,5.35,6.49,7.53,7.61,2.1" style="fill: none; stroke: #fff; stroke-linecap: round; stroke-linejoin: round; stroke-width: 6px;"/>
  <path d="M81.07,56.34c-.69,5.13,6.57,6.06,8.24,1.73" style="fill: none; stroke: #fff; stroke-linecap: round; stroke-linejoin: round; stroke-width: 6px;"/>
  <path d="M64.39,71.22c5.52-5.13,14.95-2.06,16.01,4.61" style="fill: none; stroke: #fff; stroke-linecap: round; stroke-linejoin: round; stroke-width: 6px;"/>
  <path d="M30.81,71.21c5.71,5.31,15.82,2.48,17.94-5.03" style="fill: none; stroke: #fff; stroke-linecap: round; stroke-linejoin: round; stroke-width: 6px;"/>
  <path d="M40.31,58.01c-1-4.73,5.32-8.04,7.86-3.46" style="fill: none; stroke: #fff; stroke-linecap: round; stroke-linejoin: round; stroke-width: 6px;"/>
  <path d="M23.45,62.63c-1.12-5.09,6-7.17,8.4-2.8" style="fill: none; stroke: #fff; stroke-linecap: round; stroke-linejoin: round; stroke-width: 6px;"/>
  <path d="M13.88,42.89c-11.14-.07.2,21.35,3.05,26.53,8.88,16.19,32.33,24.89,39.27,4.6,4.76-12.93,4.09-29.01-4.4-40.18-2.38-2.06-4.89-.25-7.1,1.08-9.22,5.6-20.05,8.26-30.81,7.96Z" style="fill: none; stroke: #fff; stroke-linecap: round; stroke-linejoin: round; stroke-width: 6px;"/>
</svg>