<?xml version="1.0" encoding="UTF-8"?>
<svg id="Calque_1" data-name="Calque 1" xmlns="http://www.w3.org/2000/svg" viewBox="0 0 110.43 118.99">
  <path d="M28.76,82.64c-1.99-.86-5.21-1.86-5.59-4.29-.25-1.56,1.01-3.74,1.37-5.24,1.29-5.44.03-10.25-3.16-14.79l-3.41,4.43c4.45.63,8.04,2.47,10.71,6.17,1.82,2.52,6.95,1.08,5.52-2.33-4.75-11.3-5.88-26.5,6.72-32.95l-3.05-5.21c-3.51,2.14-4.21,6.44-1.2,9.49s7.94,2.41,11.12.15c6.93-4.92,5.02-15.97-.81-20.87l-1.33,5.05c4.82-.79,9.82,1.47,12.43,5.63,1.95,3.1.78,7.71,3.33,10.3,2.03,2.06,4.62,1.27,6.45-.5,3.62-3.49,5.89-7.75,11.14-9.13l-2.94-5.05c-6.55,6.07-.3,13.88.36,20.76.33,3.42-1.07,6.99-1.28,10.4-.31,5,1.16,9.55,3.54,13.89,1.01,1.84,4.28,2.1,5.21,0,1.75-3.93,4.39-6.45,8.58-7.66l-2.94-5.05c-3.36,4.13-3.73,8.18-2.88,13.29.37,2.22.94,4.5.36,6.73-1.1,4.24-5.44,6.9-8.92,9.01s-.29,7.24,3.05,5.21c5.79-3.52,11.71-8.17,12.13-15.48.27-4.82-2.88-10.29.55-14.5,1.78-2.19.19-5.95-2.94-5.05-5.52,1.6-9.84,5.15-12.19,10.44h5.21c-2.11-3.86-3.11-7.61-2.61-12,.31-2.77,1.16-5.49,1.19-8.29.06-4.69-6.13-13.75-2.13-17.45,2.26-2.1-.11-5.79-2.94-5.05s-5.25,2.06-7.5,3.94-4.42,6.04-7.11,7.21h3.05c-.14-.08-.86-5.65-1.33-6.72-1.16-2.65-2.93-4.97-5.15-6.82-4.39-3.66-9.74-4.82-15.3-3.91-2.18.36-2.98,3.66-1.33,5.05,2.37,1.99,3.79,4.9,3.4,8.06-.17,1.35-.61,2.67-1.72,3.53s-3.27.47-3.47.6c3.34-2.03.4-6.98-3.05-5.21-14.95,7.64-15.31,25.94-9.5,39.77l5.52-2.33c-3.54-4.9-8.28-8.09-14.32-8.94-2.3-.33-5.1,2.02-3.41,4.43,2.04,2.92,3.35,5.78,2.73,9.37-.37,2.11-1.33,4.08-1.62,6.21-.78,5.77,3.67,8.84,8.44,10.92,3.53,1.53,6.61-3.67,3.05-5.21h0Z" style="fill: #fff;"/>
  <path d="M41.85,58.22c8.17-.58,16.31-.48,24.47.28,3.87.36,3.84-5.68,0-6.04-8.16-.77-16.3-.86-24.47-.28-3.85.27-3.88,6.31,0,6.04h0Z" style="fill: #fff;"/>
  <path d="M38.87,102.09c10.5,1.15,20.99,1.14,31.49-.03,3.82-.42,3.86-6.47,0-6.04-10.5,1.17-20.98,1.18-31.49.03-3.86-.42-3.83,5.62,0,6.04h0Z" style="fill: #fff;"/>
  <path d="M40.48,58.02c-.47,3.28-.95,6.67.31,9.85,1.15,2.9,5.79,4.96,4.24,8.19-.61,1.27-2.33,2.43-3.11,3.74-.61,1.03-1.12,2.21-1.51,3.34-1.34,3.94-1.26,8.16-1.05,12.26.2,3.87,6.24,3.89,6.04,0-.21-4.14-.53-8.85,1.73-12.56,1.39-2.28,3.9-3.59,4.74-6.23.72-2.29.06-4.35-1.27-6.25-.88-1.25-2.2-1.99-3.12-3.15-1.89-2.36-1.59-4.81-1.18-7.58.55-3.8-5.27-5.44-5.82-1.61h0Z" style="fill: #fff;"/>
  <path d="M61.67,59.6c.55,2.86,1,5.19-1,7.63-.98,1.19-2.37,1.92-3.3,3.22-1.29,1.81-1.98,3.87-1.29,6.08.84,2.69,3.29,3.74,4.97,5.76,3.03,3.65,2.94,8.62,2.84,13.09-.09,3.89,5.95,3.89,6.04,0,.09-4.14.02-8.34-1.52-12.25-.56-1.42-1.27-2.71-2.18-3.93-.81-1.08-2.98-2.37-3.47-3.51-1.16-2.68,3.58-5.04,4.67-7.83,1.25-3.19.68-6.6.06-9.85-.73-3.81-6.55-2.2-5.82,1.61h0Z" style="fill: #fff;"/>
  <path d="M47.55,69.59c3.23,2.53,6.66,3.44,10.72,2.74l-2.94-5.05c-1.32,1.65-2.62,3.32-3.15,5.41-.59,2.34.08,4.73-.07,7.1-.25,3.88,5.79,3.86,6.04,0,.1-1.53-.23-3-.19-4.52s.71-2.56,1.64-3.72c1.91-2.4.15-5.58-2.94-5.05-1.68.29-3.49-.12-4.84-1.18-3.02-2.37-7.32,1.87-4.27,4.27h0Z" style="fill: #fff;"/>
  <path d="M50.8,96.1c1.85-1.67,3.71-3.41,4.96-5.6,1.33-2.32,1.69-4.86,1.99-7.48l-5.93.8c.52,3.72,1.78,6.37,4.86,8.59.64.46,1.39.84,1.99,1.35l.5.46c.7,1.16,1.03.47.99-2.07-.28-.29-2.63.11-3.23.11-1.44-.01-2.87-.13-4.3-.29-3.86-.42-3.83,5.62,0,6.04,3.55.39,14.52,1.69,12.68-5.05-.58-2.12-2.38-3.56-4.09-4.76-2.44-1.71-3.14-2.97-3.56-5.98-.51-3.66-5.57-2.25-5.93.8-.47,4-2.27,6.18-5.18,8.8s1.39,6.87,4.27,4.27h0Z" style="fill: #fff;"/>
</svg>