<?xml version="1.0" encoding="UTF-8"?>
<svg id="Calque_1" data-name="Calque 1" xmlns="http://www.w3.org/2000/svg" viewBox="0 0 110.43 118.99">
  <path d="M56.58,77.94c.09,4.93.17,9.87.31,14.8.07,2.23.81,4.71.59,6.91l1.5-2.61c.51-.36-1.72-.79-2.4-.93-1.59-.34-3.23-.45-4.85-.63-2.57-.29-7.07.5-9.43-.33-1.55.27-1.78-.33-.7-1.79.37-.88.71-1.77,1.02-2.67.57-1.8.88-3.65,1.14-5.51.51-3.56.69-7.15,1.05-10.72l-3.82,2.91c5.46,1.29,11.11,1.53,16.56,2.82,3.78.9,5.39-4.92,1.61-5.82-5.46-1.29-11.11-1.53-16.56-2.82-2.06-.49-3.62.93-3.82,2.91-.4,3.99-.49,8.06-1.31,11.99-.72,3.46-2.99,6.79-2.08,10.42,1.43,5.73,8.48,4.02,12.88,4.25,3.56.19,6.86,1.38,10.33,1.75,2.03.22,4.06-.29,4.81-2.43.7-1.99-.34-4.74-.47-6.79-.32-5.21-.23-10.5-.33-15.72-.07-3.88-6.11-3.89-6.04,0h0Z" style="fill: #fff;"/>
  <path d="M59.24,78.63c4.82-5.86,9.21-12.67,12.46-19.53,1.65-3.49-3.55-6.56-5.21-3.05-3.01,6.38-7.03,12.86-11.51,18.31-2.45,2.98,1.8,7.27,4.27,4.27h0Z" style="fill: #fff;"/>
  <path d="M49.64,72.79c-4.62-10.06-10.57-20.97-17.81-29.39-2.54-2.95-6.79,1.34-4.27,4.27,6.87,7.99,12.48,18.63,16.86,28.17,1.62,3.53,6.82.46,5.21-3.05h0Z" style="fill: #fff;"/>
  <path d="M39.36,57.16c12.79,4.5,29.63,5.23,40.52-4.26,9.8-8.54,6.11-20.66-3.02-28.02-9.63-7.76-21.92-11.22-33.85-7.02-8.08,2.85-16.69,9.2-18.3,18.16-2.35,13,12.33,18.25,22.47,19.73,3.8.56,5.44-5.26,1.61-5.82-6.14-.9-18.03-2.97-18.28-11.21-.19-6.24,6.17-11.28,11.16-13.78,7.62-3.81,16.68-3.86,24.27,0s19.34,13.38,11.06,22.37c-8.76,9.5-25.14,7.85-36.03,4.02-3.67-1.29-5.25,4.54-1.61,5.82h0Z" style="fill: #fff;"/>
</svg>