<?xml version="1.0" encoding="UTF-8"?>
<svg id="Calque_1" data-name="Calque 1" xmlns="http://www.w3.org/2000/svg" viewBox="0 0 110.43 118.99">
  <path d="M52.64,66.25c-9.34.76-22.69.63-26.36-10.16-2.98-8.78,7.64-15.38,14.08-8.75l3.66-4.74c-4.52-3.24-5.16-11.08-.49-14.53s11.19-.85,13.59,3.79c1.3,2.53,6.01,1.49,5.63-1.52-.42-3.34,10.35-2.41,12.02-1.48,3.63,2.02,5.61,9.34-.61,9.57l.8,5.93c3.4-1.42,12.74-3.5,8.86,3.66-2.03,3.73-6.61,5.73-10.25,7.51-6.45,3.15-12.64,6.1-17.15,11.89s-2,9.35,2.24,14.18c5.09,5.79,11.2,10.55,17.89,14.33,3.39,1.91,6.43-3.3,3.05-5.21-3.94-2.23-7.67-4.75-11.06-7.76-2.21-1.96-9.04-7.23-8.26-10.63.86-3.77,7.57-7.23,10.62-8.81,3.98-2.07,8.2-3.69,11.94-6.21,4.88-3.29,10.09-9.59,7.23-15.84-3.07-6.7-11.22-5.22-16.7-2.92-2.87,1.2-2.92,6.07.8,5.93,10.25-.38,13.21-12.81,5.91-19.17-3.82-3.33-8.96-4.15-13.84-3.17-4.09.82-10.17,3.09-9.52,8.21l5.63-1.52c-4.24-8.23-16.24-11.2-23.38-4.78s-5.51,18.38,2.02,23.79c2.85,2.05,5.98-2.35,3.66-4.74-8.22-8.47-24.26-3.8-24.99,8.56-.39,6.57,3.5,12.95,8.85,16.54,7.04,4.72,16.02,4.78,24.15,4.12,3.85-.31,3.88-6.35,0-6.04h0Z" style="fill: #fff;"/>
  <path d="M48.26,85.86c-4.29,1.87-8.58,3.74-12.87,5.61l3.05,5.21c7.75-4.58,16.07-6.81,25.07-6.75,3.89.03,3.89-6.01,0-6.04-10-.08-19.51,2.49-28.12,7.57-3.43,2.03-.43,6.73,3.05,5.21,4.29-1.87,8.58-3.74,12.87-5.61,3.55-1.55.48-6.75-3.05-5.21h0Z" style="fill: #fff;"/>
  <path d="M74.43,82.79c3.68-3.57,7.56-6.88,11.7-9.9,3.13-2.28.5-6.9-3.05-5.21-6.29,2.98-11.35,8.18-14.13,14.57-.92,2.12.65,5.46,3.41,4.43.71-.27,1.43-.53,2.14-.8,3.61-1.34,2.05-7.18-1.61-5.82-.71.27-1.43.53-2.14.8l3.41,4.43c2.42-5.57,6.47-9.8,11.96-12.4l-3.05-5.21c-4.56,3.32-8.88,6.92-12.92,10.85-2.79,2.71,1.48,6.98,4.27,4.27h0Z" style="fill: #fff;"/>
</svg>