<?xml version="1.0" encoding="UTF-8"?>
<svg id="Calque_1" data-name="Calque 1" xmlns="http://www.w3.org/2000/svg" viewBox="0 0 110.43 118.99">
  <path d="M30.65,59.39c4.2,6.03,1.52,10.96,1.85,17.57.24,4.8,2.02,11.48,7.49,12.3,4.14.62,8.85,0,13.02-.01,4.66-.02,9.33-.04,13.99-.06,5.58-.02,12.66,1.6,14.2-5.33,1.09-4.91,1.15-9.38,3.95-13.76,1.77-2.78,4.25-4.95,6.37-7.44,6.48-7.61,7.28-17.1,6.8-26.76-.07-1.48-1.33-3.22-3.02-3.02-20.93,2.51-42.05,2.24-62.89-.99-1.6-.25-3.25.39-3.71,2.11-1.53,5.7-1.4,11.29.49,16.89l2.91-3.82c-4.47-.57-8.87-.76-13.37-.6-3.87.14-3.89,6.18,0,6.04,4.5-.17,8.9.03,13.37.6,1.91.24,3.48-2.13,2.91-3.82-1.58-4.67-1.77-8.91-.49-13.68l-3.71,2.11c21.4,3.31,42.99,3.78,64.5,1.2l-3.02-3.02c.42,8.39.1,16.73-5.71,23.27-4.18,4.7-7.99,8.87-9.81,15.08-.63,2.14-.89,4.3-1.26,6.49-.28,1.65-.03,1.83-1.5,2.39-1.55.59-4.32.02-6,.03-7.66.03-15.33.07-22.99.1-1.77,0-3.71.58-5-.85-.92-1.02-1.38-4.08-1.48-5.44-.17-2.37.33-4.73.6-7.07.59-5.11-.32-9.29-3.28-13.54-2.2-3.17-7.44-.15-5.21,3.05h0Z" style="fill: #fff;"/>
  <path d="M57.14,66.27c11.85.25,30.77,3.88,37.27-9.27,1.72-3.47-3.49-6.53-5.21-3.05-2.92,5.9-9.34,6.62-15.28,6.61-5.59,0-11.19-.21-16.78-.33-3.89-.08-3.89,5.96,0,6.04h0Z" style="fill: #fff;"/>
</svg>