<?xml version="1.0" encoding="UTF-8"?>
<svg id="Calque_1" data-name="Calque 1" xmlns="http://www.w3.org/2000/svg" viewBox="0 0 110.43 118.99">
  <path d="M86.22,61c2.12-2.29,7.19-3.98,9.91-1.58,2.51,2.21-2.85,6.9-4.98,7.73-2.87,1.12-6.99.45-8.97-2.07-.73-.93-.78-1.45-.37-2.1,1.16-1.84,3.91-2.55,5.85-3.09,3.74-1.05,2.15-6.87-1.61-5.82-4.95,1.39-11.44,4.63-10.38,10.84.77,4.49,5.19,7.54,9.41,8.43,5.77,1.23,11.11-1.04,14.68-5.62,3.41-4.39,4.66-10.46-.94-13.74-5.28-3.09-12.79-1.65-16.86,2.76-2.63,2.85,1.63,7.13,4.27,4.27h0Z" style="fill: #fff;"/>
  <path d="M81.73,64.86c-2.31-1.51-5.31-2.16-7.79-.61-1.78,1.11-3.1,3.14-3.38,5.22-.22,1.61.39,3.24,2.11,3.71,1.41.39,3.49-.48,3.71-2.11.03-.23.09-.45.13-.68.03-.13.32-.8.05-.22.11-.23.24-.47.39-.68-.39.53.21-.15.23-.18-.2.3.18.09-.18.11.62-.04-.4-.19.34-.05-.42-.08.24.07.36.12.35.15.66.37.99.58,3.26,2.13,6.29-3.09,3.05-5.21h0Z" style="fill: #fff;"/>
  <path d="M55.29,71.6c2.83-3.1,7.95-4.39,11.97-3.12,4.81,1.51,3.35,6.48-.57,8.24-3.25,1.46-7.8,1.18-10.82-.75-3.9-2.5,1.17-4.69,3.75-5.76,3.54-1.47,1.99-7.31-1.61-5.82-5.7,2.36-13.92,8.32-7.66,14.86,4.67,4.87,13.49,5.61,19.34,2.71,6.76-3.36,9.78-13.09,2.56-17.78-6.32-4.1-16.27-2.28-21.23,3.16-2.62,2.86,1.64,7.15,4.27,4.27h0Z" style="fill: #fff;"/>
  <path d="M45.75,68.49c-5.76-1.34-11.11-4.19-16.54-6.48-4.66-1.96-10.2-4.61-15.41-3.96-4.88.61-7.88,5.41-7.37,10.23.54,5.11,5.14,7.82,9.88,8.12,3.88.25,3.87-5.79,0-6.04s-5.41-5.54-1.4-6.35c2.78-.56,6.84,1.48,9.34,2.45,6.6,2.57,12.96,6.24,19.9,7.86,3.78.88,5.39-4.94,1.61-5.82h0Z" style="fill: #fff;"/>
  <path d="M97.37,53.52c-12.29-4.06-24.33-8.95-37.07-11.51-4.7-.94-11.34-2.5-15.81.07-4.86,2.79-3.08,8.33-.68,12.18,2.05,3.29,7.28.26,5.21-3.05s-2.66-4.19,1.34-4.35c5.41-.21,11.06,1.47,16.22,2.87,9.91,2.69,19.45,6.4,29.19,9.62,3.7,1.22,5.28-4.61,1.61-5.82h0Z" style="fill: #fff;"/>
</svg>