<?xml version="1.0" encoding="UTF-8"?>
<svg id="Calque_1" data-name="Calque 1" xmlns="http://www.w3.org/2000/svg" viewBox="0 0 110.43 118.99">
  <path d="M23.46,58.87c-.88,5.33,2.99,9.59,7.52,11.59,1.08,17.08,15.49,27.12,22.09,26.85,9.84-.4,23.52-17.62,25-26.08,5.44-.62,12.3-5.31,9.72-11.39" style="fill: none; stroke: #fff; stroke-linecap: round; stroke-linejoin: round; stroke-width: 6px;"/>
  <path d="M77.61,58.92c10.09,2.51,33.56-10.37,13.91-14.87,9.64-4.1-2.05-15.42-6.3-7.6.14-8.36-8.36-7.76-11.48-2.52" style="fill: none; stroke: #fff; stroke-linecap: round; stroke-linejoin: round; stroke-width: 6px;"/>
  <path d="M31.54,58.32c-17.17,5.19-27.29-15.29-14.41-15.98-3.53-4.17,2.29-13.23,5.08-6.28,1.75-8.72,13.07-10.52,13.79-2.12" style="fill: none; stroke: #fff; stroke-linecap: round; stroke-linejoin: round; stroke-width: 6px;"/>
  <path d="M31.35,57.06c-8.02-42.14,58.25-36.88,48.54-.07" style="fill: none; stroke: #fff; stroke-linecap: round; stroke-linejoin: round; stroke-width: 6px;"/>
  <path d="M38.34,46.43c2.19-4.3,8.71-5.7,13.06-5.43" style="fill: none; stroke: #fff; stroke-linecap: round; stroke-linejoin: round; stroke-width: 6px;"/>
  <path d="M60.24,41.45c3.25-1.24,9.58-.03,11.22,3" style="fill: none; stroke: #fff; stroke-linecap: round; stroke-linejoin: round; stroke-width: 6px;"/>
  <path d="M41.49,54.49c2.29-3.97,7.18-4.54,10.24-3.75" style="fill: none; stroke: #fff; stroke-linecap: round; stroke-linejoin: round; stroke-width: 5.1px;"/>
  <path d="M60.81,50.77c2.55-.77,6.82,1.29,7.41,4.49" style="fill: none; stroke: #fff; stroke-linecap: round; stroke-linejoin: round; stroke-width: 5.1px;"/>
  <path d="M41.8,75.61c4.95,11.99,18.67,11.02,23.68,1.21" style="fill: none; stroke: #fff; stroke-linecap: round; stroke-linejoin: round; stroke-width: 6px;"/>
  <path d="M51.66,61.62c-10.22,2.01-3.07,14.7,5.21,11.29,7.97-2.96,1.98-13.3-5.21-11.29Z" style="fill: none; stroke: #fff; stroke-linecap: round; stroke-linejoin: round; stroke-width: 6px;"/>
</svg>
