<svg xmlns="http://www.w3.org/2000/svg" viewBox="0 0 560 170" fill="none">
  <rect x="14" y="52" width="232" height="102" rx="20" fill="#6f4fb4"/>
  <rect x="314" y="52" width="232" height="102" rx="20" fill="#6f4fb4"/>
  <rect x="14" y="146" width="232" height="16" rx="8" fill="#5c4098"/>
  <rect x="314" y="146" width="232" height="16" rx="8" fill="#5c4098"/>

  <rect x="30" y="24" width="34" height="34" rx="10" fill="#ff8fbc"/>
  <rect x="72" y="24" width="34" height="34" rx="10" fill="#ffc778"/>
  <rect x="114" y="24" width="34" height="34" rx="10" fill="#86d4ff"/>
  <rect x="156" y="24" width="34" height="34" rx="10" fill="#a6e5b0"/>
  <rect x="198" y="24" width="34" height="34" rx="10" fill="#ff8fbc"/>

  <rect x="328" y="24" width="34" height="34" rx="10" fill="#ffc778"/>
  <rect x="370" y="24" width="34" height="34" rx="10" fill="#86d4ff"/>
  <rect x="412" y="24" width="34" height="34" rx="10" fill="#a6e5b0"/>
  <rect x="454" y="24" width="34" height="34" rx="10" fill="#ff8fbc"/>
  <rect x="496" y="24" width="34" height="34" rx="10" fill="#ffc778"/>

  <rect x="50" y="62" width="34" height="34" rx="10" fill="#86d4ff"/>
  <rect x="92" y="62" width="34" height="34" rx="10" fill="#a6e5b0"/>
  <rect x="134" y="62" width="34" height="34" rx="10" fill="#ff8fbc"/>
  <rect x="176" y="62" width="34" height="34" rx="10" fill="#ffc778"/>

  <rect x="348" y="62" width="34" height="34" rx="10" fill="#a6e5b0"/>
  <rect x="390" y="62" width="34" height="34" rx="10" fill="#ff8fbc"/>
  <rect x="432" y="62" width="34" height="34" rx="10" fill="#ffc778"/>
  <rect x="474" y="62" width="34" height="34" rx="10" fill="#86d4ff"/>

  <rect x="30" y="100" width="34" height="34" rx="10" fill="#a6e5b0"/>
  <rect x="72" y="100" width="34" height="34" rx="10" fill="#ff8fbc"/>
  <rect x="114" y="100" width="34" height="34" rx="10" fill="#ffc778"/>
  <rect x="156" y="100" width="34" height="34" rx="10" fill="#86d4ff"/>
  <rect x="198" y="100" width="34" height="34" rx="10" fill="#a6e5b0"/>

  <rect x="328" y="100" width="34" height="34" rx="10" fill="#ff8fbc"/>
  <rect x="370" y="100" width="34" height="34" rx="10" fill="#ffc778"/>
  <rect x="412" y="100" width="34" height="34" rx="10" fill="#86d4ff"/>
  <rect x="454" y="100" width="34" height="34" rx="10" fill="#a6e5b0"/>
  <rect x="496" y="100" width="34" height="34" rx="10" fill="#ff8fbc"/>

  <rect x="244" y="20" width="72" height="140" rx="24" fill="#50387f" opacity=".42"/>
  <path d="M280 26v126" stroke="#d9ccf1" stroke-width="6" stroke-linecap="round" opacity=".6"/>
</svg>
