<svg xmlns="http://www.w3.org/2000/svg" viewBox="0 0 240 140" fill="none">
  <path d="M61 104c-23 0-41-15-41-34 0-17 14-31 33-34 7-22 29-38 55-38 29 0 54 20 58 47 21 1 38 16 38 34 0 19-18 35-41 35H61z" fill="#fff9ff"/>
  <path d="M61 104c-23 0-41-15-41-34 0-17 14-31 33-34 7-22 29-38 55-38 29 0 54 20 58 47 21 1 38 16 38 34 0 19-18 35-41 35H61z" stroke="#ffc9e8" stroke-width="6"/>
  <circle cx="97" cy="78" r="4" fill="#ff9acb"/>
  <circle cx="142" cy="79" r="4" fill="#ff9acb"/>
  <path d="M95 93c6 7 12 11 24 11s18-4 24-11" stroke="#ff9acb" stroke-width="5" stroke-linecap="round"/>
</svg>
