<svg xmlns="http://www.w3.org/2000/svg" viewBox="0 0 220 620" fill="none">
  <defs>
    <linearGradient id="curtainMain" x1="0" y1="0" x2="0" y2="1">
      <stop offset="0" stop-color="#ff7c6e"/>
      <stop offset="1" stop-color="#ff4f98"/>
    </linearGradient>
    <linearGradient id="curtainFold" x1="0" y1="0" x2="1" y2="0">
      <stop offset="0" stop-color="#cf2d71" stop-opacity="0.86"/>
      <stop offset="1" stop-color="#ffb080" stop-opacity="0.24"/>
    </linearGradient>
  </defs>

  <path d="M8 24c44-16 112-16 204 4v580c-50-20-118-24-204-8V24Z" fill="url(#curtainMain)"/>

  <path d="M20 18v584" stroke="url(#curtainFold)" stroke-width="12" stroke-linecap="round"/>
  <path d="M46 12v592" stroke="url(#curtainFold)" stroke-width="11" stroke-linecap="round"/>
  <path d="M72 10v596" stroke="url(#curtainFold)" stroke-width="10" stroke-linecap="round"/>
  <path d="M98 12v596" stroke="url(#curtainFold)" stroke-width="10" stroke-linecap="round"/>
  <path d="M126 16v592" stroke="url(#curtainFold)" stroke-width="11" stroke-linecap="round"/>
  <path d="M154 20v588" stroke="url(#curtainFold)" stroke-width="11" stroke-linecap="round"/>
  <path d="M182 26v582" stroke="url(#curtainFold)" stroke-width="12" stroke-linecap="round"/>

  <path d="M8 62q36 34 72 0q36 34 72 0q36 34 72 0" stroke="#ff98c6" stroke-width="18" stroke-linecap="round" opacity=".9"/>
  <path d="M8 50q36 44 72 0q36 44 72 0q36 44 72 0" stroke="#ff5f9b" stroke-width="28" stroke-linecap="round" opacity=".92"/>

  <path d="M194 142c20 14 30 32 24 50-6 19-24 29-45 31 21 15 31 33 24 52-6 18-24 29-46 31 22 14 32 32 25 51-6 18-25 28-47 30 22 15 32 33 25 52-7 19-26 29-49 30l46-327Z" fill="#cb1f67" opacity=".72"/>
  <path d="M184 148c18 12 27 28 21 44-5 15-19 23-35 24" stroke="#ff98c5" stroke-width="5" stroke-linecap="round" opacity=".76"/>
  <path d="M179 228c18 12 27 28 21 44-5 15-19 23-35 24" stroke="#ff98c5" stroke-width="5" stroke-linecap="round" opacity=".76"/>
  <path d="M174 308c18 12 27 28 21 44-5 15-19 23-35 24" stroke="#ff98c5" stroke-width="5" stroke-linecap="round" opacity=".76"/>
  <path d="M169 388c18 12 27 28 21 44-5 15-19 23-35 24" stroke="#ff98c5" stroke-width="5" stroke-linecap="round" opacity=".76"/>

  <path d="M8 28c48-18 120-18 204 0" stroke="#ffd6b0" stroke-width="8" stroke-linecap="round"/>
</svg>
