<svg xmlns="http://www.w3.org/2000/svg" viewBox="0 0 760 270" fill="none">
  <defs>
    <linearGradient id="sceneTop" x1="0" y1="0" x2="0" y2="1">
      <stop offset="0" stop-color="#ffd07a"/>
      <stop offset="1" stop-color="#f39a26"/>
    </linearGradient>
    <linearGradient id="sceneFront" x1="0" y1="0" x2="0" y2="1">
      <stop offset="0" stop-color="#e36b08"/>
      <stop offset="1" stop-color="#b94300"/>
    </linearGradient>
    <linearGradient id="baseFront" x1="0" y1="0" x2="0" y2="1">
      <stop offset="0" stop-color="#c44d05"/>
      <stop offset="1" stop-color="#912f00"/>
    </linearGradient>
  </defs>

  <path d="M120 34h520l92 66H28l92-66Z" fill="url(#sceneTop)"/>

  <path d="M28 100h704v18c-80 16-158 24-352 24S108 134 28 118v-18Z" fill="url(#sceneFront)"/>
  <path d="M28 118c80 17 158 24 352 24s272-7 352-24v92c-82 15-161 22-352 22s-270-7-352-22v-92Z" fill="url(#baseFront)"/>
  <path d="M28 210c82 15 161 22 352 22s270-7 352-22v22c-82 13-161 18-352 18s-270-5-352-18v-22Z" fill="#7f2800"/>

  <path d="M28 100c80 16 158 24 352 24s272-8 352-24" stroke="#ffd88c" stroke-width="7" stroke-linecap="round"/>
  <path d="M28 118c80 16 158 24 352 24s272-8 352-24" stroke="#be4a03" stroke-width="4" opacity=".82"/>

  <path d="M380 34v108" stroke="#cf5a00" stroke-width="5"/>
  <path d="M330 34 266 142" stroke="#cf5a00" stroke-width="5"/>
  <path d="M430 34 494 142" stroke="#cf5a00" stroke-width="5"/>
  <path d="M280 34 198 142" stroke="#cf5a00" stroke-width="5"/>
  <path d="M480 34 562 142" stroke="#cf5a00" stroke-width="5"/>
  <path d="M230 34 130 142" stroke="#cf5a00" stroke-width="5"/>
  <path d="M530 34 630 142" stroke="#cf5a00" stroke-width="5"/>

  <ellipse cx="380" cy="122" rx="150" ry="20" fill="#cb6400" opacity=".4"/>
  <ellipse cx="380" cy="118" rx="104" ry="12" fill="#e4d1ff" opacity=".3"/>
</svg>
