<?xml version="1.0" encoding="UTF-8" standalone="no"?>
<!-- Created with Inkscape (http://www.inkscape.org/) -->

<svg
   version="1.1"
   id="svg1"
   width="512"
   height="512"
   viewBox="0 0 512.00002 512.00002"
   sodipodi:docname="favicon-festibaskimpro.svg"
   inkscape:version="1.4.2 (ebf0e940, 2025-05-08)"
   inkscape:export-filename="favicon-512x512.png"
   inkscape:export-xdpi="96"
   inkscape:export-ydpi="96"
   xmlns:inkscape="http://www.inkscape.org/namespaces/inkscape"
   xmlns:sodipodi="http://sodipodi.sourceforge.net/DTD/sodipodi-0.dtd"
   xmlns="http://www.w3.org/2000/svg"
   xmlns:svg="http://www.w3.org/2000/svg">
  <defs
     id="defs1" />
  <sodipodi:namedview
     id="namedview1"
     pagecolor="#ffffff"
     bordercolor="#000000"
     borderopacity="0.25"
     inkscape:showpageshadow="2"
     inkscape:pageopacity="0.0"
     inkscape:pagecheckerboard="0"
     inkscape:deskcolor="#d1d1d1"
     inkscape:zoom="0.54509615"
     inkscape:cx="216.47557"
     inkscape:cy="298.11254"
     inkscape:window-width="1728"
     inkscape:window-height="1056"
     inkscape:window-x="0"
     inkscape:window-y="33"
     inkscape:window-maximized="0"
     inkscape:current-layer="g1" />
  <g
     inkscape:groupmode="layer"
     inkscape:label="Image"
     id="g1"
     transform="translate(-241.99999,-275.69676)">
    <path
       style="fill:#34a9eb;stroke-width:0.459607"
       d="m 403.88653,717.91307 -5.94538,-0.85303 -4.66582,-1.28005 -4.66582,-1.28005 -3.78983,-1.59383 -3.78983,-1.59382 -3.98326,-2.58984 -3.98326,-2.58989 -3.27191,-2.96038 -3.2719,-2.96038 -5.86661,-8.32023 -5.86661,-8.3202 -4.6129,-6.43451 -4.6129,-6.4345 -3.14463,-4.28967 -3.14462,-4.28967 -8.51014,-11.9498 -8.51015,-11.94979 -5.88943,-7.97206 -5.88945,-7.97206 -1.18331,-1.82743 -1.18329,-1.82743 3.67685,2.99748 3.67687,2.99747 4.90248,2.35858 4.90247,2.35857 6.1281,1.55216 6.1281,1.55217 7.96653,0.67083 7.96653,0.67083 8.88574,-0.7185 8.88575,-0.71851 7.35371,-1.23538 7.35372,-1.23539 6.43451,-1.51174 6.4345,-1.51173 8.13735,-2.45147 8.13734,-2.45149 10.5969,-3.90515 10.59691,-3.90515 10.68062,-4.72747 10.68063,-4.72746 9.49855,-4.93205 9.49856,-4.93206 7.96653,-4.60114 7.96653,-4.60114 7.32532,-4.57134 7.32533,-4.57133 7.99493,-5.52985 7.99491,-5.52985 7.04732,-5.21713 7.04731,-5.21711 7.04732,-5.62482 7.0473,-5.62481 8.88575,-7.86209 8.88575,-7.86207 8.88574,-8.9469 8.88574,-8.9469 6.19008,-7.03048 6.19008,-7.03049 5.64301,-7.04732 5.64302,-7.04731 4.1764,-6.1281 4.17642,-6.1281 3.53996,-5.82169 3.53996,-5.8217 3.52186,-7.04731 3.52185,-7.04731 2.17085,-5.51529 2.17083,-5.51529 1.59973,-5.5153 1.59972,-5.51528 0.88415,-5.82169 0.88415,-5.8217 0.004,-4.77511 0.004,-4.77511 -0.97097,-4.70075 -0.97097,-4.70075 -0.91264,-1.76487 -0.91266,-1.76487 0.19987,-0.19987 0.19988,-0.19987 8.11467,11.1342 8.11469,11.1342 7.17002,9.80495 7.17005,9.80496 13.33446,18.57987 13.33445,18.57988 1.92534,4.99245 1.9253,4.99247 0.93479,4.92332 0.93485,4.92333 -0.31783,10.11136 -0.31781,10.11137 -1.85502,7.0473 -1.85507,7.04733 -1.63712,4.59607 -1.63712,4.59607 -4.11662,8.57934 -4.11657,8.57934 -3.2491,5.51529 -3.2491,5.51528 -4.60241,6.74091 -4.60238,6.74091 -5.24807,6.74091 -5.24803,6.74091 -3.70384,4.28967 -3.70388,4.28967 -7.88774,8.40746 -7.88772,8.40746 -9.28085,8.51599 -9.28084,8.51601 -4.28968,3.65034 -4.28966,3.65035 -8.57934,6.71498 -8.57934,6.71498 -5.51529,4.01303 -5.51529,4.01304 -9.19215,6.12038 -9.19215,6.12039 -6.1281,3.69312 -6.1281,3.69311 -6.65231,3.82894 -6.65231,3.82892 -10.95765,5.3979 -10.95764,5.3979 -9.66009,4.11284 -9.66008,4.1128 -14.40103,4.78451 -14.40103,4.78456 -10.04439,2.23636 -10.04437,2.2364 -6.50149,0.90796 -6.50149,0.9079 -12.25619,0.25513 -12.2562,0.25508 z m -71.26866,-99.85247 -4.90248,-0.8255 -3.98326,-1.04894 -3.98326,-1.04893 -4.80809,-2.49721 -4.80809,-2.49721 -3.41931,-3.11836 -3.4193,-3.11837 -2.36475,-3.65141 -2.36474,-3.65142 -1.35766,-4.31511 -1.35765,-4.31512 0.0549,-8.88574 0.0549,-8.88575 1.88965,-7.18062 1.88965,-7.18061 3.1628,-7.83323 3.16281,-7.83322 3.11146,-5.8217 3.11145,-5.82169 4.52949,-7.31152 4.52947,-7.31153 4.07048,-5.55748 4.07047,-5.55749 4.38353,-5.51529 4.38352,-5.51528 7.73215,-8.6643 7.73213,-8.6643 10.28544,-9.79978 10.28544,-9.79979 4.90248,-4.24951 4.90248,-4.24952 7.96653,-6.42432 7.96653,-6.42432 7.04731,-5.21833 7.04731,-5.21832 2.90984,-2.0559 2.90982,-2.05589 0.2321,0.25635 0.23209,0.25636 2.77288,11.53223 2.77289,11.53223 0.27092,0.27092 0.27092,0.27092 12.19857,-2.99274 12.19857,-2.99274 0.21595,0.56998 0.21595,0.56999 -1.89988,8.6975 -1.89989,8.69749 -3.11174,14.09463 -3.11175,14.09463 -0.88608,4.28966 -0.88608,4.28968 -0.30965,1.53202 -0.30965,1.53202 -1.31056,5.97558 -1.31055,5.97559 0.31513,0.31512 0.31512,0.31513 15.25175,-3.83947 15.25174,-3.83946 0.39919,-2.45124 0.39918,-2.45125 0.41106,-4.90247 0.41106,-4.90248 0.91162,-8.88574 0.91164,-8.88575 0.57702,-6.1281 0.57702,-6.1281 0.29895,-2.45124 0.29895,-2.45124 0.30063,-3.37045 0.30063,-3.37045 0.67767,-6.1281 0.67768,-6.1281 -4.97436,-19.85828 -4.97434,-19.85827 0.48701,-0.45917 0.48702,-0.45917 8.57934,-4.28862 8.57934,-4.28862 6.4345,-2.85333 6.43451,-2.85332 6.79369,-2.69013 6.7937,-2.69012 7.91373,-2.7104 7.91375,-2.7104 6.74091,-1.9008 6.7409,-1.90079 9.19216,-1.80991 9.19214,-1.80991 6.32432,-0.72727 6.32432,-0.72726 12.36638,0.29323 12.36638,0.29324 5.88687,1.55725 5.88687,1.55724 4.65814,2.30328 4.65814,2.30327 3.04491,2.50363 3.0449,2.50364 2.09767,2.75764 2.09768,2.75765 0.92804,1.83843 0.92803,1.83842 1.46227,4.28967 1.46227,4.28968 -0.002,8.27292 -0.002,8.27294 -1.428,6.4345 -1.42799,6.43451 -2.696,6.92122 -2.69599,6.92123 -3.65746,7.1734 -3.65747,7.17341 -5.00929,7.65894 -5.00929,7.65895 -5.03888,6.77592 -5.03889,6.77594 -5.51426,6.40065 -5.51427,6.40067 -5.6845,6.1281 -5.68449,6.1281 -5.63343,5.51529 -5.63342,5.51528 -6.39379,5.84751 -6.39378,5.8475 -5.8217,4.93302 -5.8217,4.93302 -8.57933,6.70665 -8.57934,6.70666 -7.35372,5.23794 -7.35371,5.23795 -8.27294,5.50594 -8.27294,5.50595 -8.27292,4.94173 -8.27294,4.94174 -7.04732,3.97845 -7.04731,3.97844 -6.74942,3.37997 -6.74942,3.37995 -7.0388,3.18613 -7.0388,3.18613 -8.88575,3.54863 -8.88575,3.54863 -7.66011,2.47275 -7.66013,2.47275 -6.4345,1.84355 -6.43451,1.84356 -5.82169,1.23258 -5.8217,1.23258 -6.4345,0.98825 -6.4345,0.98825 -11.03058,0.26046 -11.03058,0.26046 z"
       id="path3" />
    <path
       style="fill:#da342c;stroke-width:0.430043"
       d="m 437.50622,503.82075 v -0.82354 l 1.09883,-4.75268 1.09885,-4.75269 0.31767,-1.72018 0.31766,-1.72018 0.83365,-4.01374 0.83364,-4.01374 2.91159,-13.188 2.91158,-13.18801 1.77767,-8.13804 1.77768,-8.13803 -0.20206,-0.53333 -0.20206,-0.53333 -11.42806,2.8037 -11.42806,2.8037 -0.38894,-0.62932 -0.38894,-0.62931 -0.7115,-3.25067 -0.7115,-3.25068 -7.9725,-32.34661 -7.97247,-32.3466 0.14558,-0.12203 0.14559,-0.12205 4.01374,0.71507 4.01374,0.71508 16.05496,3.28117 16.05497,3.28115 1.14677,0.25785 1.14679,0.25785 3.44036,0.58168 3.44034,0.58166 0.3508,0.3968 0.3508,0.39678 6.43805,25.87074 6.43805,25.87073 -0.59677,5.09241 -0.59676,5.09241 -0.33325,4.01375 -0.33326,4.01373 -0.25555,1.72018 -0.25554,1.72017 -0.58584,6.30731 -0.58584,6.30731 -0.82682,8.02747 -0.82682,8.02749 -0.38428,4.58713 -0.38427,4.58713 -0.37602,2.29357 -0.376,2.29356 -12.6046,3.19755 -12.60461,3.19755 -1.86352,0.37182 -1.86352,0.37182 z"
       id="path2" />
  </g>
</svg>
